<svg width="467" height="140" viewBox="0 0 467 140" fill="none" xmlns="http://www.w3.org/2000/svg">
<rect width="467" height="140" rx="4" fill="url(#paint0_linear_71_6)"/>
<path d="M171.03 74.876C171.03 75.94 170.75 76.8547 170.19 77.62C169.648 78.3853 168.911 78.9733 167.978 79.384C167.044 79.7947 166.018 80 164.898 80H155.406V60.12H165.654C166.587 60.12 167.39 60.372 168.062 60.876C168.752 61.3613 169.275 61.996 169.63 62.78C170.003 63.5453 170.19 64.348 170.19 65.188C170.19 66.1587 169.938 67.0733 169.434 67.932C168.948 68.772 168.248 69.3973 167.334 69.808C168.472 70.144 169.368 70.76 170.022 71.656C170.694 72.5333 171.03 73.6067 171.03 74.876ZM167.81 74.288C167.81 73.728 167.688 73.224 167.446 72.776C167.222 72.3093 166.904 71.936 166.494 71.656C166.102 71.3573 165.635 71.208 165.094 71.208H158.542V77.284H164.898C165.458 77.284 165.952 77.1533 166.382 76.892C166.83 76.612 167.175 76.248 167.418 75.8C167.679 75.3333 167.81 74.8293 167.81 74.288ZM158.542 62.836V68.688H164.31C164.832 68.688 165.299 68.5667 165.71 68.324C166.12 68.0627 166.447 67.7173 166.69 67.288C166.932 66.84 167.054 66.336 167.054 65.776C167.054 65.1973 166.942 64.6933 166.718 64.264C166.494 63.816 166.186 63.4707 165.794 63.228C165.42 62.9667 164.982 62.836 164.478 62.836H158.542ZM181.048 80.28C179.891 80.28 178.855 80.084 177.94 79.692C177.025 79.2813 176.232 78.7213 175.56 78.012C174.907 77.3027 174.403 76.5 174.048 75.604C173.693 74.6893 173.516 73.7187 173.516 72.692C173.516 71.6653 173.693 70.6947 174.048 69.78C174.403 68.8653 174.907 68.0627 175.56 67.372C176.232 66.6627 177.025 66.112 177.94 65.72C178.873 65.3093 179.909 65.104 181.048 65.104C182.187 65.104 183.213 65.3093 184.128 65.72C185.061 66.112 185.855 66.6627 186.508 67.372C187.18 68.0627 187.693 68.8653 188.048 69.78C188.403 70.6947 188.58 71.6653 188.58 72.692C188.58 73.7187 188.403 74.6893 188.048 75.604C187.693 76.5 187.18 77.3027 186.508 78.012C185.855 78.7213 185.061 79.2813 184.128 79.692C183.213 80.084 182.187 80.28 181.048 80.28ZM176.68 72.72C176.68 73.6533 176.876 74.4933 177.268 75.24C177.66 75.9867 178.183 76.5747 178.836 77.004C179.489 77.4333 180.227 77.648 181.048 77.648C181.851 77.648 182.579 77.4333 183.232 77.004C183.904 76.556 184.436 75.9587 184.828 75.212C185.22 74.4467 185.416 73.6067 185.416 72.692C185.416 71.7587 185.22 70.9187 184.828 70.172C184.436 69.4253 183.904 68.8373 183.232 68.408C182.579 67.96 181.851 67.736 181.048 67.736C180.227 67.736 179.489 67.96 178.836 68.408C178.183 68.856 177.66 69.4533 177.268 70.2C176.876 70.928 176.68 71.768 176.68 72.72ZM198.452 80.28C197.294 80.28 196.258 80.084 195.344 79.692C194.429 79.2813 193.636 78.7213 192.964 78.012C192.31 77.3027 191.806 76.5 191.452 75.604C191.097 74.6893 190.92 73.7187 190.92 72.692C190.92 71.6653 191.097 70.6947 191.452 69.78C191.806 68.8653 192.31 68.0627 192.964 67.372C193.636 66.6627 194.429 66.112 195.344 65.72C196.277 65.3093 197.313 65.104 198.452 65.104C199.59 65.104 200.617 65.3093 201.532 65.72C202.465 66.112 203.258 66.6627 203.912 67.372C204.584 68.0627 205.097 68.8653 205.452 69.78C205.806 70.6947 205.984 71.6653 205.984 72.692C205.984 73.7187 205.806 74.6893 205.452 75.604C205.097 76.5 204.584 77.3027 203.912 78.012C203.258 78.7213 202.465 79.2813 201.532 79.692C200.617 80.084 199.59 80.28 198.452 80.28ZM194.084 72.72C194.084 73.6533 194.28 74.4933 194.672 75.24C195.064 75.9867 195.586 76.5747 196.24 77.004C196.893 77.4333 197.63 77.648 198.452 77.648C199.254 77.648 199.982 77.4333 200.636 77.004C201.308 76.556 201.84 75.9587 202.232 75.212C202.624 74.4467 202.82 73.6067 202.82 72.692C202.82 71.7587 202.624 70.9187 202.232 70.172C201.84 69.4253 201.308 68.8373 200.636 68.408C199.982 67.96 199.254 67.736 198.452 67.736C197.63 67.736 196.893 67.96 196.24 68.408C195.586 68.856 195.064 69.4533 194.672 70.2C194.28 70.928 194.084 71.768 194.084 72.72ZM219.468 80L214.764 73.252L212.356 75.548V80H209.276V59.56H212.356V72.44L219.132 65.384H222.436L216.752 71.516L222.744 80H219.468ZM239.117 60.204H242.057L244.521 66.952L247.013 60.204H249.953L246.537 69.052L249.505 76.36L255.693 60.12H259.137L250.989 80H248.273L244.549 71.096L240.797 80H238.053L229.933 60.12H233.349L239.565 76.36L242.533 69.052L239.117 60.204ZM259.028 75.716C259.028 74.7827 259.29 73.9707 259.812 73.28C260.354 72.5707 261.091 72.0293 262.024 71.656C262.958 71.264 264.04 71.068 265.272 71.068C265.926 71.068 266.588 71.1147 267.26 71.208C267.951 71.3013 268.558 71.4507 269.08 71.656V70.732C269.08 69.7053 268.772 68.9027 268.156 68.324C267.54 67.7453 266.654 67.456 265.496 67.456C264.675 67.456 263.9 67.6053 263.172 67.904C262.444 68.184 261.67 68.5853 260.848 69.108L259.812 67.036C260.783 66.3827 261.754 65.8973 262.724 65.58C263.714 65.2627 264.75 65.104 265.832 65.104C267.792 65.104 269.332 65.6267 270.452 66.672C271.591 67.6987 272.16 69.164 272.16 71.068V76.528C272.16 76.8827 272.216 77.1347 272.328 77.284C272.459 77.4333 272.674 77.5173 272.972 77.536V80C272.692 80.056 272.44 80.0933 272.216 80.112C271.992 80.1307 271.806 80.14 271.656 80.14C271.003 80.14 270.508 79.9813 270.172 79.664C269.836 79.3467 269.64 78.9733 269.584 78.544L269.5 77.704C268.866 78.5253 268.054 79.16 267.064 79.608C266.075 80.056 265.076 80.28 264.068 80.28C263.098 80.28 262.23 80.084 261.464 79.692C260.699 79.2813 260.102 78.7307 259.672 78.04C259.243 77.3493 259.028 76.5747 259.028 75.716ZM268.352 76.612C268.576 76.3693 268.754 76.1267 268.884 75.884C269.015 75.6413 269.08 75.4267 269.08 75.24V73.56C268.558 73.3547 268.007 73.2053 267.428 73.112C266.85 73 266.28 72.944 265.72 72.944C264.6 72.944 263.686 73.168 262.976 73.616C262.286 74.064 261.94 74.68 261.94 75.464C261.94 75.8933 262.052 76.304 262.276 76.696C262.519 77.088 262.855 77.4053 263.284 77.648C263.732 77.8907 264.283 78.012 264.936 78.012C265.608 78.012 266.252 77.8813 266.868 77.62C267.484 77.3587 267.979 77.0227 268.352 76.612ZM284.496 79.244C284.234 79.3747 283.908 79.5147 283.516 79.664C283.124 79.8133 282.676 79.944 282.172 80.056C281.686 80.168 281.182 80.224 280.66 80.224C280.025 80.224 279.437 80.112 278.896 79.888C278.354 79.664 277.916 79.3093 277.58 78.824C277.262 78.32 277.104 77.676 277.104 76.892V67.736H275.172V65.356H277.104V60.54H280.184V65.356H283.376V67.736H280.184V75.912C280.221 76.416 280.38 76.7893 280.66 77.032C280.958 77.2747 281.322 77.396 281.752 77.396C282.181 77.396 282.592 77.3213 282.984 77.172C283.376 77.0227 283.665 76.9013 283.852 76.808L284.496 79.244ZM293.633 80.28C292.495 80.28 291.459 80.084 290.525 79.692C289.611 79.2813 288.817 78.7307 288.145 78.04C287.473 77.3307 286.951 76.528 286.577 75.632C286.223 74.7173 286.045 73.7467 286.045 72.72C286.045 71.3387 286.363 70.0787 286.997 68.94C287.632 67.7827 288.519 66.8587 289.657 66.168C290.796 65.4587 292.131 65.104 293.661 65.104C295.192 65.104 296.508 65.4587 297.609 66.168C298.729 66.8587 299.597 67.7733 300.213 68.912C300.829 70.0507 301.137 71.2733 301.137 72.58C301.137 72.804 301.128 73.0187 301.109 73.224C301.091 73.4107 301.072 73.5693 301.053 73.7H289.321C289.377 74.5587 289.611 75.3147 290.021 75.968C290.451 76.6027 290.992 77.1067 291.645 77.48C292.299 77.8347 292.999 78.012 293.745 78.012C294.567 78.012 295.341 77.8067 296.069 77.396C296.816 76.9853 297.32 76.444 297.581 75.772L300.213 76.528C299.896 77.2373 299.411 77.8813 298.757 78.46C298.123 79.02 297.367 79.468 296.489 79.804C295.612 80.1213 294.66 80.28 293.633 80.28ZM289.237 71.656H298.085C298.029 70.816 297.787 70.0787 297.357 69.444C296.947 68.7907 296.415 68.2867 295.761 67.932C295.127 67.5587 294.417 67.372 293.633 67.372C292.868 67.372 292.159 67.5587 291.505 67.932C290.871 68.2867 290.348 68.7907 289.937 69.444C289.527 70.0787 289.293 70.816 289.237 71.656ZM312.442 68.016C311.247 68.0347 310.183 68.3053 309.25 68.828C308.335 69.3507 307.682 70.088 307.29 71.04V80H304.21V65.356H307.066V68.632C307.57 67.624 308.232 66.8213 309.054 66.224C309.875 65.608 310.743 65.272 311.658 65.216C311.844 65.216 311.994 65.216 312.106 65.216C312.236 65.216 312.348 65.2253 312.442 65.244V68.016Z" fill="white"/>
<defs>
<linearGradient id="paint0_linear_71_6" x1="-134.5" y1="248.207" x2="507.676" y2="-271.591" gradientUnits="userSpaceOnUse">
<stop stop-color="#1182C7"/>
<stop offset="0.503125" stop-color="#229FA3"/>
<stop offset="1" stop-color="white"/>
</linearGradient>
</defs>
</svg>
