<svg width="467" height="140" viewBox="0 0 467 140" fill="none" xmlns="http://www.w3.org/2000/svg">
<rect width="467" height="140" rx="4" fill="url(#paint0_linear_71_4)"/>
<path d="M160.96 43.204H163.9L166.364 49.952L168.856 43.204H171.796L168.38 52.052L171.348 59.36L177.536 43.12H180.98L172.832 63H170.116L166.392 54.096L162.64 63H159.896L151.776 43.12H155.192L161.408 59.36L164.376 52.052L160.96 43.204ZM180.871 58.716C180.871 57.7827 181.133 56.9707 181.655 56.28C182.197 55.5707 182.934 55.0293 183.867 54.656C184.801 54.264 185.883 54.068 187.115 54.068C187.769 54.068 188.431 54.1147 189.103 54.208C189.794 54.3013 190.401 54.4507 190.923 54.656V53.732C190.923 52.7053 190.615 51.9027 189.999 51.324C189.383 50.7453 188.497 50.456 187.339 50.456C186.518 50.456 185.743 50.6053 185.015 50.904C184.287 51.184 183.513 51.5853 182.691 52.108L181.655 50.036C182.626 49.3827 183.597 48.8973 184.567 48.58C185.557 48.2627 186.593 48.104 187.675 48.104C189.635 48.104 191.175 48.6267 192.295 49.672C193.434 50.6987 194.003 52.164 194.003 54.068V59.528C194.003 59.8827 194.059 60.1347 194.171 60.284C194.302 60.4333 194.517 60.5173 194.815 60.536V63C194.535 63.056 194.283 63.0933 194.059 63.112C193.835 63.1307 193.649 63.14 193.499 63.14C192.846 63.14 192.351 62.9813 192.015 62.664C191.679 62.3467 191.483 61.9733 191.427 61.544L191.343 60.704C190.709 61.5253 189.897 62.16 188.907 62.608C187.918 63.056 186.919 63.28 185.911 63.28C184.941 63.28 184.073 63.084 183.307 62.692C182.542 62.2813 181.945 61.7307 181.515 61.04C181.086 60.3493 180.871 59.5747 180.871 58.716ZM190.195 59.612C190.419 59.3693 190.597 59.1267 190.727 58.884C190.858 58.6413 190.923 58.4267 190.923 58.24V56.56C190.401 56.3547 189.85 56.2053 189.271 56.112C188.693 56 188.123 55.944 187.563 55.944C186.443 55.944 185.529 56.168 184.819 56.616C184.129 57.064 183.783 57.68 183.783 58.464C183.783 58.8933 183.895 59.304 184.119 59.696C184.362 60.088 184.698 60.4053 185.127 60.648C185.575 60.8907 186.126 61.012 186.779 61.012C187.451 61.012 188.095 60.8813 188.711 60.62C189.327 60.3587 189.822 60.0227 190.195 59.612ZM206.339 62.244C206.077 62.3747 205.751 62.5147 205.359 62.664C204.967 62.8133 204.519 62.944 204.015 63.056C203.529 63.168 203.025 63.224 202.503 63.224C201.868 63.224 201.28 63.112 200.739 62.888C200.197 62.664 199.759 62.3093 199.423 61.824C199.105 61.32 198.947 60.676 198.947 59.892V50.736H197.015V48.356H198.947V43.54H202.027V48.356H205.219V50.736H202.027V58.912C202.064 59.416 202.223 59.7893 202.503 60.032C202.801 60.2747 203.165 60.396 203.595 60.396C204.024 60.396 204.435 60.3213 204.827 60.172C205.219 60.0227 205.508 59.9013 205.695 59.808L206.339 62.244ZM215.477 63.28C214.338 63.28 213.302 63.084 212.369 62.692C211.454 62.2813 210.661 61.7307 209.989 61.04C209.317 60.3307 208.794 59.528 208.421 58.632C208.066 57.7173 207.889 56.7467 207.889 55.72C207.889 54.3387 208.206 53.0787 208.841 51.94C209.475 50.7827 210.362 49.8587 211.501 49.168C212.639 48.4587 213.974 48.104 215.505 48.104C217.035 48.104 218.351 48.4587 219.453 49.168C220.573 49.8587 221.441 50.7733 222.057 51.912C222.673 53.0507 222.981 54.2733 222.981 55.58C222.981 55.804 222.971 56.0187 222.953 56.224C222.934 56.4107 222.915 56.5693 222.897 56.7H211.165C211.221 57.5587 211.454 58.3147 211.865 58.968C212.294 59.6027 212.835 60.1067 213.489 60.48C214.142 60.8347 214.842 61.012 215.589 61.012C216.41 61.012 217.185 60.8067 217.913 60.396C218.659 59.9853 219.163 59.444 219.425 58.772L222.057 59.528C221.739 60.2373 221.254 60.8813 220.601 61.46C219.966 62.02 219.21 62.468 218.333 62.804C217.455 63.1213 216.503 63.28 215.477 63.28ZM211.081 54.656H219.929C219.873 53.816 219.63 53.0787 219.201 52.444C218.79 51.7907 218.258 51.2867 217.605 50.932C216.97 50.5587 216.261 50.372 215.477 50.372C214.711 50.372 214.002 50.5587 213.349 50.932C212.714 51.2867 212.191 51.7907 211.781 52.444C211.37 53.0787 211.137 53.816 211.081 54.656ZM234.285 51.016C233.09 51.0347 232.026 51.3053 231.093 51.828C230.178 52.3507 229.525 53.088 229.133 54.04V63H226.053V48.356H228.909V51.632C229.413 50.624 230.076 49.8213 230.897 49.224C231.718 48.608 232.586 48.272 233.501 48.216C233.688 48.216 233.837 48.216 233.949 48.216C234.08 48.216 234.192 48.2253 234.285 48.244V51.016ZM244.327 63V43.12H247.463V60.228H258.131V63H244.327ZM267.318 63.28C266.179 63.28 265.143 63.084 264.21 62.692C263.295 62.2813 262.502 61.7307 261.83 61.04C261.158 60.3307 260.635 59.528 260.262 58.632C259.907 57.7173 259.73 56.7467 259.73 55.72C259.73 54.3387 260.047 53.0787 260.682 51.94C261.317 50.7827 262.203 49.8587 263.342 49.168C264.481 48.4587 265.815 48.104 267.346 48.104C268.877 48.104 270.193 48.4587 271.294 49.168C272.414 49.8587 273.282 50.7733 273.898 51.912C274.514 53.0507 274.822 54.2733 274.822 55.58C274.822 55.804 274.813 56.0187 274.794 56.224C274.775 56.4107 274.757 56.5693 274.738 56.7H263.006C263.062 57.5587 263.295 58.3147 263.706 58.968C264.135 59.6027 264.677 60.1067 265.33 60.48C265.983 60.8347 266.683 61.012 267.43 61.012C268.251 61.012 269.026 60.8067 269.754 60.396C270.501 59.9853 271.005 59.444 271.266 58.772L273.898 59.528C273.581 60.2373 273.095 60.8813 272.442 61.46C271.807 62.02 271.051 62.468 270.174 62.804C269.297 63.1213 268.345 63.28 267.318 63.28ZM262.922 54.656H271.77C271.714 53.816 271.471 53.0787 271.042 52.444C270.631 51.7907 270.099 51.2867 269.446 50.932C268.811 50.5587 268.102 50.372 267.318 50.372C266.553 50.372 265.843 50.5587 265.19 50.932C264.555 51.2867 264.033 51.7907 263.622 52.444C263.211 53.0787 262.978 53.816 262.922 54.656ZM281.572 63L276 48.356H279.192L283.364 60.144L287.536 48.356H290.504L284.932 63H281.572ZM299.419 63.28C298.28 63.28 297.244 63.084 296.311 62.692C295.396 62.2813 294.603 61.7307 293.931 61.04C293.259 60.3307 292.736 59.528 292.363 58.632C292.008 57.7173 291.831 56.7467 291.831 55.72C291.831 54.3387 292.148 53.0787 292.783 51.94C293.417 50.7827 294.304 49.8587 295.443 49.168C296.581 48.4587 297.916 48.104 299.447 48.104C300.977 48.104 302.293 48.4587 303.395 49.168C304.515 49.8587 305.383 50.7733 305.999 51.912C306.615 53.0507 306.923 54.2733 306.923 55.58C306.923 55.804 306.913 56.0187 306.895 56.224C306.876 56.4107 306.857 56.5693 306.839 56.7H295.107C295.163 57.5587 295.396 58.3147 295.807 58.968C296.236 59.6027 296.777 60.1067 297.431 60.48C298.084 60.8347 298.784 61.012 299.531 61.012C300.352 61.012 301.127 60.8067 301.855 60.396C302.601 59.9853 303.105 59.444 303.367 58.772L305.999 59.528C305.681 60.2373 305.196 60.8813 304.543 61.46C303.908 62.02 303.152 62.468 302.275 62.804C301.397 63.1213 300.445 63.28 299.419 63.28ZM295.023 54.656H303.871C303.815 53.816 303.572 53.0787 303.143 52.444C302.732 51.7907 302.2 51.2867 301.547 50.932C300.912 50.5587 300.203 50.372 299.419 50.372C298.653 50.372 297.944 50.5587 297.291 50.932C296.656 51.2867 296.133 51.7907 295.723 52.444C295.312 53.0787 295.079 53.816 295.023 54.656ZM310.023 42.56H313.103V58.772C313.103 59.5187 313.215 59.9947 313.439 60.2C313.663 60.4053 313.943 60.508 314.279 60.508C314.652 60.508 314.998 60.4707 315.315 60.396C315.651 60.3213 315.94 60.228 316.183 60.116L316.631 62.552C316.183 62.7387 315.651 62.8973 315.035 63.028C314.419 63.1587 313.868 63.224 313.383 63.224C312.338 63.224 311.516 62.9347 310.919 62.356C310.322 61.7587 310.023 60.9373 310.023 59.892V42.56ZM173.023 96V76.12H181.367C182.263 76.12 183.085 76.3067 183.831 76.68C184.578 77.0533 185.231 77.548 185.791 78.164C186.351 78.78 186.781 79.4707 187.079 80.236C187.378 81.0013 187.527 81.7853 187.527 82.588C187.527 83.6893 187.275 84.744 186.771 85.752C186.286 86.7413 185.586 87.544 184.671 88.16C183.775 88.776 182.73 89.084 181.535 89.084H176.159V96H173.023ZM176.159 86.312H181.339C181.937 86.312 182.459 86.1533 182.907 85.836C183.355 85.5 183.701 85.052 183.943 84.492C184.205 83.932 184.335 83.2973 184.335 82.588C184.335 81.86 184.186 81.216 183.887 80.656C183.589 80.096 183.197 79.6667 182.711 79.368C182.245 79.0507 181.731 78.892 181.171 78.892H176.159V86.312ZM198.869 84.016C197.674 84.0347 196.61 84.3053 195.677 84.828C194.762 85.3507 194.109 86.088 193.717 87.04V96H190.637V81.356H193.493V84.632C193.997 83.624 194.659 82.8213 195.481 82.224C196.302 81.608 197.17 81.272 198.085 81.216C198.271 81.216 198.421 81.216 198.533 81.216C198.663 81.216 198.775 81.2253 198.869 81.244V84.016ZM208.032 96.28C206.893 96.28 205.857 96.084 204.924 95.692C204.009 95.2813 203.216 94.7307 202.544 94.04C201.872 93.3307 201.349 92.528 200.976 91.632C200.621 90.7173 200.444 89.7467 200.444 88.72C200.444 87.3387 200.761 86.0787 201.396 84.94C202.031 83.7827 202.917 82.8587 204.056 82.168C205.195 81.4587 206.529 81.104 208.06 81.104C209.591 81.104 210.907 81.4587 212.008 82.168C213.128 82.8587 213.996 83.7733 214.612 84.912C215.228 86.0507 215.536 87.2733 215.536 88.58C215.536 88.804 215.527 89.0187 215.508 89.224C215.489 89.4107 215.471 89.5693 215.452 89.7H203.72C203.776 90.5587 204.009 91.3147 204.42 91.968C204.849 92.6027 205.391 93.1067 206.044 93.48C206.697 93.8347 207.397 94.012 208.144 94.012C208.965 94.012 209.74 93.8067 210.468 93.396C211.215 92.9853 211.719 92.444 211.98 91.772L214.612 92.528C214.295 93.2373 213.809 93.8813 213.156 94.46C212.521 95.02 211.765 95.468 210.888 95.804C210.011 96.1213 209.059 96.28 208.032 96.28ZM203.636 87.656H212.484C212.428 86.816 212.185 86.0787 211.756 85.444C211.345 84.7907 210.813 84.2867 210.16 83.932C209.525 83.5587 208.816 83.372 208.032 83.372C207.267 83.372 206.557 83.5587 205.904 83.932C205.269 84.2867 204.747 84.7907 204.336 85.444C203.925 86.0787 203.692 86.816 203.636 87.656ZM217.684 88.692C217.684 87.292 217.964 86.0227 218.524 84.884C219.103 83.7267 219.887 82.812 220.876 82.14C221.866 81.4493 223.004 81.104 224.292 81.104C225.412 81.104 226.42 81.3933 227.316 81.972C228.231 82.5507 228.94 83.2693 229.444 84.128V75.56H232.524V92.528C232.524 92.8827 232.59 93.1347 232.72 93.284C232.851 93.4333 233.066 93.5173 233.364 93.536V96C232.786 96.0933 232.338 96.14 232.02 96.14C231.442 96.14 230.947 95.972 230.536 95.636C230.144 95.3 229.939 94.8987 229.92 94.432L229.892 93.34C229.332 94.2733 228.576 95.0013 227.624 95.524C226.672 96.028 225.683 96.28 224.656 96.28C223.648 96.28 222.715 96.084 221.856 95.692C221.016 95.3 220.279 94.7493 219.644 94.04C219.028 93.3307 218.543 92.5187 218.188 91.604C217.852 90.6893 217.684 89.7187 217.684 88.692ZM229.444 90.736V86.9C229.239 86.3027 228.903 85.7707 228.436 85.304C227.988 84.8187 227.475 84.436 226.896 84.156C226.336 83.876 225.776 83.736 225.216 83.736C224.563 83.736 223.966 83.876 223.424 84.156C222.902 84.436 222.444 84.8093 222.052 85.276C221.679 85.7427 221.39 86.2747 221.184 86.872C220.979 87.4693 220.876 88.0947 220.876 88.748C220.876 89.42 220.988 90.0547 221.212 90.652C221.436 91.2307 221.754 91.7533 222.164 92.22C222.594 92.668 223.079 93.0227 223.62 93.284C224.18 93.5267 224.787 93.648 225.44 93.648C225.851 93.648 226.262 93.5733 226.672 93.424C227.102 93.2747 227.503 93.0693 227.876 92.808C228.268 92.5467 228.595 92.2387 228.856 91.884C229.136 91.5293 229.332 91.1467 229.444 90.736ZM236.996 96V81.356H240.076V96H236.996ZM236.996 78.948V75.56H240.076V78.948H236.996ZM250.974 96.28C249.835 96.28 248.799 96.084 247.866 95.692C246.951 95.2813 246.158 94.7213 245.486 94.012C244.814 93.3027 244.291 92.4907 243.918 91.576C243.563 90.6613 243.386 89.6907 243.386 88.664C243.386 87.2827 243.694 86.0227 244.31 84.884C244.944 83.7453 245.822 82.8307 246.942 82.14C248.08 81.4493 249.424 81.104 250.974 81.104C252.467 81.104 253.764 81.44 254.866 82.112C255.986 82.7653 256.807 83.6427 257.33 84.744L254.334 85.696C253.998 85.08 253.522 84.604 252.906 84.268C252.308 83.9133 251.646 83.736 250.918 83.736C250.096 83.736 249.35 83.9507 248.678 84.38C248.024 84.7907 247.502 85.3693 247.11 86.116C246.736 86.844 246.55 87.6933 246.55 88.664C246.55 89.5973 246.746 90.4467 247.138 91.212C247.53 91.9587 248.052 92.556 248.706 93.004C249.378 93.4333 250.124 93.648 250.946 93.648C251.45 93.648 251.935 93.564 252.402 93.396C252.887 93.2093 253.307 92.9667 253.662 92.668C254.016 92.3507 254.268 92.0053 254.418 91.632L257.442 92.528C257.124 93.256 256.648 93.9 256.014 94.46C255.398 95.02 254.66 95.468 253.802 95.804C252.962 96.1213 252.019 96.28 250.974 96.28ZM268.686 95.244C268.425 95.3747 268.098 95.5147 267.706 95.664C267.314 95.8133 266.866 95.944 266.362 96.056C265.877 96.168 265.373 96.224 264.85 96.224C264.216 96.224 263.628 96.112 263.086 95.888C262.545 95.664 262.106 95.3093 261.77 94.824C261.453 94.32 261.294 93.676 261.294 92.892V83.736H259.362V81.356H261.294V76.54H264.374V81.356H267.566V83.736H264.374V91.912C264.412 92.416 264.57 92.7893 264.85 93.032C265.149 93.2747 265.513 93.396 265.942 93.396C266.372 93.396 266.782 93.3213 267.174 93.172C267.566 93.0227 267.856 92.9013 268.042 92.808L268.686 95.244ZM277.768 96.28C276.611 96.28 275.575 96.084 274.66 95.692C273.745 95.2813 272.952 94.7213 272.28 94.012C271.627 93.3027 271.123 92.5 270.768 91.604C270.413 90.6893 270.236 89.7187 270.236 88.692C270.236 87.6653 270.413 86.6947 270.768 85.78C271.123 84.8653 271.627 84.0627 272.28 83.372C272.952 82.6627 273.745 82.112 274.66 81.72C275.593 81.3093 276.629 81.104 277.768 81.104C278.907 81.104 279.933 81.3093 280.848 81.72C281.781 82.112 282.575 82.6627 283.228 83.372C283.9 84.0627 284.413 84.8653 284.768 85.78C285.123 86.6947 285.3 87.6653 285.3 88.692C285.3 89.7187 285.123 90.6893 284.768 91.604C284.413 92.5 283.9 93.3027 283.228 94.012C282.575 94.7213 281.781 95.2813 280.848 95.692C279.933 96.084 278.907 96.28 277.768 96.28ZM273.4 88.72C273.4 89.6533 273.596 90.4933 273.988 91.24C274.38 91.9867 274.903 92.5747 275.556 93.004C276.209 93.4333 276.947 93.648 277.768 93.648C278.571 93.648 279.299 93.4333 279.952 93.004C280.624 92.556 281.156 91.9587 281.548 91.212C281.94 90.4467 282.136 89.6067 282.136 88.692C282.136 87.7587 281.94 86.9187 281.548 86.172C281.156 85.4253 280.624 84.8373 279.952 84.408C279.299 83.96 278.571 83.736 277.768 83.736C276.947 83.736 276.209 83.96 275.556 84.408C274.903 84.856 274.38 85.4533 273.988 86.2C273.596 86.928 273.4 87.768 273.4 88.72ZM296.824 84.016C295.629 84.0347 294.565 84.3053 293.632 84.828C292.717 85.3507 292.064 86.088 291.672 87.04V96H288.592V81.356H291.448V84.632C291.952 83.624 292.615 82.8213 293.436 82.224C294.257 81.608 295.125 81.272 296.04 81.216C296.227 81.216 296.376 81.216 296.488 81.216C296.619 81.216 296.731 81.2253 296.824 81.244V84.016Z" fill="white"/>
<defs>
<linearGradient id="paint0_linear_71_4" x1="-134.5" y1="248.207" x2="507.676" y2="-271.591" gradientUnits="userSpaceOnUse">
<stop stop-color="#1182C7"/>
<stop offset="0.503125" stop-color="#229FA3"/>
<stop offset="1" stop-color="white"/>
</linearGradient>
</defs>
</svg>
