<svg width="467" height="140" viewBox="0 0 467 140" fill="none" xmlns="http://www.w3.org/2000/svg">
<rect width="467" height="140" rx="4" fill="url(#paint0_linear_71_5)"/>
<path d="M146.907 47.796C146.721 47.5907 146.45 47.376 146.095 47.152C145.741 46.9093 145.321 46.6853 144.835 46.48C144.35 46.2747 143.827 46.1067 143.267 45.976C142.707 45.8453 142.129 45.78 141.531 45.78C140.225 45.78 139.254 46.0227 138.619 46.508C137.985 46.9933 137.667 47.6653 137.667 48.524C137.667 49.1587 137.845 49.6627 138.199 50.036C138.554 50.3907 139.095 50.6893 139.823 50.932C140.551 51.1747 141.466 51.436 142.567 51.716C143.911 52.0333 145.078 52.416 146.067 52.864C147.057 53.2933 147.813 53.872 148.335 54.6C148.858 55.328 149.119 56.2893 149.119 57.484C149.119 58.492 148.933 59.36 148.559 60.088C148.186 60.816 147.663 61.4133 146.991 61.88C146.319 62.328 145.545 62.664 144.667 62.888C143.79 63.0933 142.847 63.196 141.839 63.196C140.85 63.196 139.861 63.0933 138.871 62.888C137.901 62.6827 136.967 62.384 136.071 61.992C135.194 61.5813 134.382 61.0867 133.635 60.508L135.063 57.82C135.306 58.0627 135.651 58.3333 136.099 58.632C136.566 58.912 137.098 59.1827 137.695 59.444C138.311 59.7053 138.974 59.9293 139.683 60.116C140.411 60.284 141.149 60.368 141.895 60.368C143.146 60.368 144.098 60.1533 144.751 59.724C145.423 59.276 145.759 58.6413 145.759 57.82C145.759 57.148 145.545 56.616 145.115 56.224C144.686 55.8133 144.061 55.468 143.239 55.188C142.418 54.908 141.438 54.628 140.299 54.348C138.993 53.9933 137.901 53.6107 137.023 53.2C136.146 52.7707 135.483 52.2293 135.035 51.576C134.606 50.904 134.391 50.0547 134.391 49.028C134.391 47.7213 134.709 46.62 135.343 45.724C135.978 44.8093 136.837 44.128 137.919 43.68C139.021 43.2133 140.253 42.98 141.615 42.98C142.511 42.98 143.361 43.0827 144.163 43.288C144.966 43.4747 145.713 43.736 146.403 44.072C147.113 44.408 147.757 44.7907 148.335 45.22L146.907 47.796ZM152.433 63V48.356H155.513V63H152.433ZM152.433 45.948V42.56H155.513V45.948H152.433ZM167.922 62.244C167.661 62.3747 167.334 62.5147 166.942 62.664C166.55 62.8133 166.102 62.944 165.598 63.056C165.113 63.168 164.609 63.224 164.086 63.224C163.451 63.224 162.863 63.112 162.322 62.888C161.781 62.664 161.342 62.3093 161.006 61.824C160.689 61.32 160.53 60.676 160.53 59.892V50.736H158.598V48.356H160.53V43.54H163.61V48.356H166.802V50.736H163.61V58.912C163.647 59.416 163.806 59.7893 164.086 60.032C164.385 60.2747 164.749 60.396 165.178 60.396C165.607 60.396 166.018 60.3213 166.41 60.172C166.802 60.0227 167.091 59.9013 167.278 59.808L167.922 62.244ZM177.06 63.28C175.921 63.28 174.885 63.084 173.952 62.692C173.037 62.2813 172.244 61.7307 171.572 61.04C170.9 60.3307 170.377 59.528 170.004 58.632C169.649 57.7173 169.472 56.7467 169.472 55.72C169.472 54.3387 169.789 53.0787 170.424 51.94C171.058 50.7827 171.945 49.8587 173.084 49.168C174.222 48.4587 175.557 48.104 177.088 48.104C178.618 48.104 179.934 48.4587 181.036 49.168C182.156 49.8587 183.024 50.7733 183.64 51.912C184.256 53.0507 184.564 54.2733 184.564 55.58C184.564 55.804 184.554 56.0187 184.536 56.224C184.517 56.4107 184.498 56.5693 184.48 56.7H172.748C172.804 57.5587 173.037 58.3147 173.448 58.968C173.877 59.6027 174.418 60.1067 175.072 60.48C175.725 60.8347 176.425 61.012 177.172 61.012C177.993 61.012 178.768 60.8067 179.496 60.396C180.242 59.9853 180.746 59.444 181.008 58.772L183.64 59.528C183.322 60.2373 182.837 60.8813 182.184 61.46C181.549 62.02 180.793 62.468 179.916 62.804C179.038 63.1213 178.086 63.28 177.06 63.28ZM172.664 54.656H181.512C181.456 53.816 181.213 53.0787 180.784 52.444C180.373 51.7907 179.841 51.2867 179.188 50.932C178.553 50.5587 177.844 50.372 177.06 50.372C176.294 50.372 175.585 50.5587 174.932 50.932C174.297 51.2867 173.774 51.7907 173.364 52.444C172.953 53.0787 172.72 53.816 172.664 54.656ZM192.844 63.28C191.612 63.28 190.445 63.084 189.344 62.692C188.243 62.2813 187.3 61.6747 186.516 60.872L187.664 58.8C188.504 59.5467 189.344 60.088 190.184 60.424C191.043 60.76 191.892 60.928 192.732 60.928C193.591 60.928 194.291 60.7693 194.832 60.452C195.373 60.116 195.644 59.6307 195.644 58.996C195.644 58.5293 195.504 58.184 195.224 57.96C194.944 57.736 194.533 57.54 193.992 57.372C193.469 57.204 192.835 57.0173 192.088 56.812C191.043 56.4947 190.165 56.168 189.456 55.832C188.747 55.4773 188.215 55.048 187.86 54.544C187.505 54.04 187.328 53.396 187.328 52.612C187.328 51.66 187.571 50.848 188.056 50.176C188.541 49.504 189.213 48.9907 190.072 48.636C190.949 48.2813 191.957 48.104 193.096 48.104C194.16 48.104 195.14 48.272 196.036 48.608C196.951 48.9253 197.753 49.4293 198.444 50.12L197.128 52.164C196.475 51.5667 195.803 51.128 195.112 50.848C194.44 50.568 193.712 50.428 192.928 50.428C192.48 50.428 192.051 50.484 191.64 50.596C191.229 50.6893 190.884 50.876 190.604 51.156C190.343 51.4173 190.212 51.7907 190.212 52.276C190.212 52.668 190.324 52.9853 190.548 53.228C190.772 53.4707 191.108 53.676 191.556 53.844C192.004 54.012 192.555 54.1987 193.208 54.404C194.347 54.74 195.317 55.076 196.12 55.412C196.923 55.7293 197.539 56.1493 197.968 56.672C198.416 57.176 198.64 57.876 198.64 58.772C198.64 60.1907 198.108 61.3013 197.044 62.104C195.999 62.888 194.599 63.28 192.844 63.28ZM210.268 63V51.1H208.308V48.72H210.268V48.132C210.268 46.9373 210.455 45.9013 210.828 45.024C211.22 44.1467 211.761 43.4747 212.452 43.008C213.161 42.5227 213.992 42.28 214.944 42.28C215.541 42.28 216.129 42.364 216.708 42.532C217.287 42.6813 217.837 42.896 218.36 43.176L217.688 45.472C217.408 45.2853 217.072 45.1453 216.68 45.052C216.307 44.94 215.943 44.884 215.588 44.884C214.879 44.884 214.328 45.1547 213.936 45.696C213.544 46.2373 213.348 47.0213 213.348 48.048V48.72H217.1V51.1H213.348V63H210.268ZM226.275 63.28C225.118 63.28 224.082 63.084 223.167 62.692C222.252 62.2813 221.459 61.7213 220.787 61.012C220.134 60.3027 219.63 59.5 219.275 58.604C218.92 57.6893 218.743 56.7187 218.743 55.692C218.743 54.6653 218.92 53.6947 219.275 52.78C219.63 51.8653 220.134 51.0627 220.787 50.372C221.459 49.6627 222.252 49.112 223.167 48.72C224.1 48.3093 225.136 48.104 226.275 48.104C227.414 48.104 228.44 48.3093 229.355 48.72C230.288 49.112 231.082 49.6627 231.735 50.372C232.407 51.0627 232.92 51.8653 233.275 52.78C233.63 53.6947 233.807 54.6653 233.807 55.692C233.807 56.7187 233.63 57.6893 233.275 58.604C232.92 59.5 232.407 60.3027 231.735 61.012C231.082 61.7213 230.288 62.2813 229.355 62.692C228.44 63.084 227.414 63.28 226.275 63.28ZM221.907 55.72C221.907 56.6533 222.103 57.4933 222.495 58.24C222.887 58.9867 223.41 59.5747 224.063 60.004C224.716 60.4333 225.454 60.648 226.275 60.648C227.078 60.648 227.806 60.4333 228.459 60.004C229.131 59.556 229.663 58.9587 230.055 58.212C230.447 57.4467 230.643 56.6067 230.643 55.692C230.643 54.7587 230.447 53.9187 230.055 53.172C229.663 52.4253 229.131 51.8373 228.459 51.408C227.806 50.96 227.078 50.736 226.275 50.736C225.454 50.736 224.716 50.96 224.063 51.408C223.41 51.856 222.887 52.4533 222.495 53.2C222.103 53.928 221.907 54.768 221.907 55.72ZM245.331 51.016C244.136 51.0347 243.072 51.3053 242.139 51.828C241.224 52.3507 240.571 53.088 240.179 54.04V63H237.099V48.356H239.955V51.632C240.459 50.624 241.121 49.8213 241.943 49.224C242.764 48.608 243.632 48.272 244.547 48.216C244.733 48.216 244.883 48.216 244.995 48.216C245.125 48.216 245.237 48.2253 245.331 48.244V51.016ZM261.444 43.204H264.384L266.848 49.952L269.34 43.204H272.28L268.864 52.052L271.832 59.36L278.02 43.12H281.464L273.316 63H270.6L266.876 54.096L263.124 63H260.38L252.26 43.12H255.676L261.892 59.36L264.86 52.052L261.444 43.204ZM281.355 58.716C281.355 57.7827 281.617 56.9707 282.139 56.28C282.681 55.5707 283.418 55.0293 284.351 54.656C285.285 54.264 286.367 54.068 287.599 54.068C288.253 54.068 288.915 54.1147 289.587 54.208C290.278 54.3013 290.885 54.4507 291.407 54.656V53.732C291.407 52.7053 291.099 51.9027 290.483 51.324C289.867 50.7453 288.981 50.456 287.823 50.456C287.002 50.456 286.227 50.6053 285.499 50.904C284.771 51.184 283.997 51.5853 283.175 52.108L282.139 50.036C283.11 49.3827 284.081 48.8973 285.051 48.58C286.041 48.2627 287.077 48.104 288.159 48.104C290.119 48.104 291.659 48.6267 292.779 49.672C293.918 50.6987 294.487 52.164 294.487 54.068V59.528C294.487 59.8827 294.543 60.1347 294.655 60.284C294.786 60.4333 295.001 60.5173 295.299 60.536V63C295.019 63.056 294.767 63.0933 294.543 63.112C294.319 63.1307 294.133 63.14 293.983 63.14C293.33 63.14 292.835 62.9813 292.499 62.664C292.163 62.3467 291.967 61.9733 291.911 61.544L291.827 60.704C291.193 61.5253 290.381 62.16 289.391 62.608C288.402 63.056 287.403 63.28 286.395 63.28C285.425 63.28 284.557 63.084 283.791 62.692C283.026 62.2813 282.429 61.7307 281.999 61.04C281.57 60.3493 281.355 59.5747 281.355 58.716ZM290.679 59.612C290.903 59.3693 291.081 59.1267 291.211 58.884C291.342 58.6413 291.407 58.4267 291.407 58.24V56.56C290.885 56.3547 290.334 56.2053 289.755 56.112C289.177 56 288.607 55.944 288.047 55.944C286.927 55.944 286.013 56.168 285.303 56.616C284.613 57.064 284.267 57.68 284.267 58.464C284.267 58.8933 284.379 59.304 284.603 59.696C284.846 60.088 285.182 60.4053 285.611 60.648C286.059 60.8907 286.61 61.012 287.263 61.012C287.935 61.012 288.579 60.8813 289.195 60.62C289.811 60.3587 290.306 60.0227 290.679 59.612ZM306.823 62.244C306.561 62.3747 306.235 62.5147 305.843 62.664C305.451 62.8133 305.003 62.944 304.499 63.056C304.013 63.168 303.509 63.224 302.987 63.224C302.352 63.224 301.764 63.112 301.223 62.888C300.681 62.664 300.243 62.3093 299.907 61.824C299.589 61.32 299.431 60.676 299.431 59.892V50.736H297.499V48.356H299.431V43.54H302.511V48.356H305.703V50.736H302.511V58.912C302.548 59.416 302.707 59.7893 302.987 60.032C303.285 60.2747 303.649 60.396 304.079 60.396C304.508 60.396 304.919 60.3213 305.311 60.172C305.703 60.0227 305.992 59.9013 306.179 59.808L306.823 62.244ZM315.96 63.28C314.822 63.28 313.786 63.084 312.852 62.692C311.938 62.2813 311.144 61.7307 310.472 61.04C309.8 60.3307 309.278 59.528 308.904 58.632C308.55 57.7173 308.372 56.7467 308.372 55.72C308.372 54.3387 308.69 53.0787 309.324 51.94C309.959 50.7827 310.846 49.8587 311.984 49.168C313.123 48.4587 314.458 48.104 315.988 48.104C317.519 48.104 318.835 48.4587 319.936 49.168C321.056 49.8587 321.924 50.7733 322.54 51.912C323.156 53.0507 323.464 54.2733 323.464 55.58C323.464 55.804 323.455 56.0187 323.436 56.224C323.418 56.4107 323.399 56.5693 323.38 56.7H311.648C311.704 57.5587 311.938 58.3147 312.348 58.968C312.778 59.6027 313.319 60.1067 313.972 60.48C314.626 60.8347 315.326 61.012 316.072 61.012C316.894 61.012 317.668 60.8067 318.396 60.396C319.143 59.9853 319.647 59.444 319.908 58.772L322.54 59.528C322.223 60.2373 321.738 60.8813 321.084 61.46C320.45 62.02 319.694 62.468 318.816 62.804C317.939 63.1213 316.987 63.28 315.96 63.28ZM311.564 54.656H320.412C320.356 53.816 320.114 53.0787 319.684 52.444C319.274 51.7907 318.742 51.2867 318.088 50.932C317.454 50.5587 316.744 50.372 315.96 50.372C315.195 50.372 314.486 50.5587 313.832 50.932C313.198 51.2867 312.675 51.7907 312.264 52.444C311.854 53.0787 311.62 53.816 311.564 54.656ZM334.769 51.016C333.574 51.0347 332.51 51.3053 331.577 51.828C330.662 52.3507 330.009 53.088 329.617 54.04V63H326.537V48.356H329.393V51.632C329.897 50.624 330.559 49.8213 331.381 49.224C332.202 48.608 333.07 48.272 333.985 48.216C334.171 48.216 334.321 48.216 334.433 48.216C334.563 48.216 334.675 48.2253 334.769 48.244V51.016ZM194.189 80.796C194.002 80.5907 193.732 80.376 193.377 80.152C193.022 79.9093 192.602 79.6853 192.117 79.48C191.632 79.2747 191.109 79.1067 190.549 78.976C189.989 78.8453 189.41 78.78 188.813 78.78C187.506 78.78 186.536 79.0227 185.901 79.508C185.266 79.9933 184.949 80.6653 184.949 81.524C184.949 82.1587 185.126 82.6627 185.481 83.036C185.836 83.3907 186.377 83.6893 187.105 83.932C187.833 84.1747 188.748 84.436 189.849 84.716C191.193 85.0333 192.36 85.416 193.349 85.864C194.338 86.2933 195.094 86.872 195.617 87.6C196.14 88.328 196.401 89.2893 196.401 90.484C196.401 91.492 196.214 92.36 195.841 93.088C195.468 93.816 194.945 94.4133 194.273 94.88C193.601 95.328 192.826 95.664 191.949 95.888C191.072 96.0933 190.129 96.196 189.121 96.196C188.132 96.196 187.142 96.0933 186.153 95.888C185.182 95.6827 184.249 95.384 183.353 94.992C182.476 94.5813 181.664 94.0867 180.917 93.508L182.345 90.82C182.588 91.0627 182.933 91.3333 183.381 91.632C183.848 91.912 184.38 92.1827 184.977 92.444C185.593 92.7053 186.256 92.9293 186.965 93.116C187.693 93.284 188.43 93.368 189.177 93.368C190.428 93.368 191.38 93.1533 192.033 92.724C192.705 92.276 193.041 91.6413 193.041 90.82C193.041 90.148 192.826 89.616 192.397 89.224C191.968 88.8133 191.342 88.468 190.521 88.188C189.7 87.908 188.72 87.628 187.581 87.348C186.274 86.9933 185.182 86.6107 184.305 86.2C183.428 85.7707 182.765 85.2293 182.317 84.576C181.888 83.904 181.673 83.0547 181.673 82.028C181.673 80.7213 181.99 79.62 182.625 78.724C183.26 77.8093 184.118 77.128 185.201 76.68C186.302 76.2133 187.534 75.98 188.897 75.98C189.793 75.98 190.642 76.0827 191.445 76.288C192.248 76.4747 192.994 76.736 193.685 77.072C194.394 77.408 195.038 77.7907 195.617 78.22L194.189 80.796ZM207.562 95.244C207.3 95.3747 206.974 95.5147 206.582 95.664C206.19 95.8133 205.742 95.944 205.238 96.056C204.752 96.168 204.248 96.224 203.726 96.224C203.091 96.224 202.503 96.112 201.962 95.888C201.42 95.664 200.982 95.3093 200.646 94.824C200.328 94.32 200.17 93.676 200.17 92.892V83.736H198.238V81.356H200.17V76.54H203.25V81.356H206.442V83.736H203.25V91.912C203.287 92.416 203.446 92.7893 203.726 93.032C204.024 93.2747 204.388 93.396 204.818 93.396C205.247 93.396 205.658 93.3213 206.05 93.172C206.442 93.0227 206.731 92.9013 206.918 92.808L207.562 95.244ZM216.643 96.28C215.486 96.28 214.45 96.084 213.535 95.692C212.621 95.2813 211.827 94.7213 211.155 94.012C210.502 93.3027 209.998 92.5 209.643 91.604C209.289 90.6893 209.111 89.7187 209.111 88.692C209.111 87.6653 209.289 86.6947 209.643 85.78C209.998 84.8653 210.502 84.0627 211.155 83.372C211.827 82.6627 212.621 82.112 213.535 81.72C214.469 81.3093 215.505 81.104 216.643 81.104C217.782 81.104 218.809 81.3093 219.723 81.72C220.657 82.112 221.45 82.6627 222.103 83.372C222.775 84.0627 223.289 84.8653 223.643 85.78C223.998 86.6947 224.175 87.6653 224.175 88.692C224.175 89.7187 223.998 90.6893 223.643 91.604C223.289 92.5 222.775 93.3027 222.103 94.012C221.45 94.7213 220.657 95.2813 219.723 95.692C218.809 96.084 217.782 96.28 216.643 96.28ZM212.275 88.72C212.275 89.6533 212.471 90.4933 212.863 91.24C213.255 91.9867 213.778 92.5747 214.431 93.004C215.085 93.4333 215.822 93.648 216.643 93.648C217.446 93.648 218.174 93.4333 218.827 93.004C219.499 92.556 220.031 91.9587 220.423 91.212C220.815 90.4467 221.011 89.6067 221.011 88.692C221.011 87.7587 220.815 86.9187 220.423 86.172C220.031 85.4253 219.499 84.8373 218.827 84.408C218.174 83.96 217.446 83.736 216.643 83.736C215.822 83.736 215.085 83.96 214.431 84.408C213.778 84.856 213.255 85.4533 212.863 86.2C212.471 86.928 212.275 87.768 212.275 88.72ZM235.699 84.016C234.504 84.0347 233.44 84.3053 232.507 84.828C231.592 85.3507 230.939 86.088 230.547 87.04V96H227.467V81.356H230.323V84.632C230.827 83.624 231.49 82.8213 232.311 82.224C233.132 81.608 234 81.272 234.915 81.216C235.102 81.216 235.251 81.216 235.363 81.216C235.494 81.216 235.606 81.2253 235.699 81.244V84.016ZM237.408 91.716C237.408 90.7827 237.67 89.9707 238.192 89.28C238.734 88.5707 239.471 88.0293 240.404 87.656C241.338 87.264 242.42 87.068 243.652 87.068C244.306 87.068 244.968 87.1147 245.64 87.208C246.331 87.3013 246.938 87.4507 247.46 87.656V86.732C247.46 85.7053 247.152 84.9027 246.536 84.324C245.92 83.7453 245.034 83.456 243.876 83.456C243.055 83.456 242.28 83.6053 241.552 83.904C240.824 84.184 240.05 84.5853 239.228 85.108L238.192 83.036C239.163 82.3827 240.134 81.8973 241.104 81.58C242.094 81.2627 243.13 81.104 244.212 81.104C246.172 81.104 247.712 81.6267 248.832 82.672C249.971 83.6987 250.54 85.164 250.54 87.068V92.528C250.54 92.8827 250.596 93.1347 250.708 93.284C250.839 93.4333 251.054 93.5173 251.352 93.536V96C251.072 96.056 250.82 96.0933 250.596 96.112C250.372 96.1307 250.186 96.14 250.036 96.14C249.383 96.14 248.888 95.9813 248.552 95.664C248.216 95.3467 248.02 94.9733 247.964 94.544L247.88 93.704C247.246 94.5253 246.434 95.16 245.444 95.608C244.455 96.056 243.456 96.28 242.448 96.28C241.478 96.28 240.61 96.084 239.844 95.692C239.079 95.2813 238.482 94.7307 238.052 94.04C237.623 93.3493 237.408 92.5747 237.408 91.716ZM246.732 92.612C246.956 92.3693 247.134 92.1267 247.264 91.884C247.395 91.6413 247.46 91.4267 247.46 91.24V89.56C246.938 89.3547 246.387 89.2053 245.808 89.112C245.23 89 244.66 88.944 244.1 88.944C242.98 88.944 242.066 89.168 241.356 89.616C240.666 90.064 240.32 90.68 240.32 91.464C240.32 91.8933 240.432 92.304 240.656 92.696C240.899 93.088 241.235 93.4053 241.664 93.648C242.112 93.8907 242.663 94.012 243.316 94.012C243.988 94.012 244.632 93.8813 245.248 93.62C245.864 93.3587 246.359 93.0227 246.732 92.612ZM260.633 96.14C259.644 96.14 258.738 95.944 257.917 95.552C257.096 95.1413 256.386 94.5907 255.789 93.9C255.21 93.2093 254.753 92.416 254.417 91.52C254.1 90.624 253.941 89.6813 253.941 88.692C253.941 87.6467 254.109 86.6667 254.445 85.752C254.781 84.8373 255.248 84.0347 255.845 83.344C256.461 82.6347 257.18 82.084 258.001 81.692C258.822 81.3 259.737 81.104 260.745 81.104C261.921 81.104 262.948 81.384 263.825 81.944C264.721 82.504 265.458 83.232 266.037 84.128V81.356H268.753V95.58C268.753 96.9987 268.408 98.2027 267.717 99.192C267.045 100.181 266.121 100.937 264.945 101.46C263.769 101.983 262.444 102.244 260.969 102.244C259.345 102.244 258.001 101.964 256.937 101.404C255.873 100.844 254.968 100.079 254.221 99.108L255.957 97.484C256.517 98.268 257.236 98.8653 258.113 99.276C259.009 99.6867 259.961 99.892 260.969 99.892C261.809 99.892 262.584 99.7333 263.293 99.416C264.021 99.1173 264.6 98.6413 265.029 97.988C265.458 97.3533 265.673 96.5507 265.673 95.58V93.34C265.15 94.2173 264.432 94.908 263.517 95.412C262.602 95.8973 261.641 96.14 260.633 96.14ZM261.641 93.648C262.108 93.648 262.556 93.5733 262.985 93.424C263.414 93.256 263.806 93.0413 264.161 92.78C264.534 92.5 264.852 92.192 265.113 91.856C265.374 91.5013 265.561 91.128 265.673 90.736V86.9C265.43 86.2653 265.085 85.7147 264.637 85.248C264.189 84.7627 263.685 84.3893 263.125 84.128C262.565 83.8667 261.996 83.736 261.417 83.736C260.745 83.736 260.138 83.8853 259.597 84.184C259.074 84.464 258.626 84.8467 258.253 85.332C257.88 85.7987 257.59 86.3307 257.385 86.928C257.18 87.5253 257.077 88.1413 257.077 88.776C257.077 89.448 257.189 90.0733 257.413 90.652C257.656 91.2307 257.982 91.7533 258.393 92.22C258.804 92.668 259.289 93.0227 259.849 93.284C260.409 93.5267 261.006 93.648 261.641 93.648ZM279.643 96.28C278.504 96.28 277.468 96.084 276.535 95.692C275.62 95.2813 274.827 94.7307 274.155 94.04C273.483 93.3307 272.96 92.528 272.587 91.632C272.232 90.7173 272.055 89.7467 272.055 88.72C272.055 87.3387 272.372 86.0787 273.007 84.94C273.641 83.7827 274.528 82.8587 275.667 82.168C276.805 81.4587 278.14 81.104 279.671 81.104C281.201 81.104 282.517 81.4587 283.619 82.168C284.739 82.8587 285.607 83.7733 286.223 84.912C286.839 86.0507 287.147 87.2733 287.147 88.58C287.147 88.804 287.137 89.0187 287.119 89.224C287.1 89.4107 287.081 89.5693 287.063 89.7H275.331C275.387 90.5587 275.62 91.3147 276.031 91.968C276.46 92.6027 277.001 93.1067 277.655 93.48C278.308 93.8347 279.008 94.012 279.755 94.012C280.576 94.012 281.351 93.8067 282.079 93.396C282.825 92.9853 283.329 92.444 283.591 91.772L286.223 92.528C285.905 93.2373 285.42 93.8813 284.767 94.46C284.132 95.02 283.376 95.468 282.499 95.804C281.621 96.1213 280.669 96.28 279.643 96.28ZM275.247 87.656H284.095C284.039 86.816 283.796 86.0787 283.367 85.444C282.956 84.7907 282.424 84.2867 281.771 83.932C281.136 83.5587 280.427 83.372 279.643 83.372C278.877 83.372 278.168 83.5587 277.515 83.932C276.88 84.2867 276.357 84.7907 275.947 85.444C275.536 86.0787 275.303 86.816 275.247 87.656Z" fill="white"/>
<defs>
<linearGradient id="paint0_linear_71_5" x1="-134.5" y1="248.207" x2="507.676" y2="-271.591" gradientUnits="userSpaceOnUse">
<stop stop-color="#1182C7"/>
<stop offset="0.503125" stop-color="#229FA3"/>
<stop offset="1" stop-color="white"/>
</linearGradient>
</defs>
</svg>
