<svg width="937" height="362" viewBox="0 0 937 362" fill="none" xmlns="http://www.w3.org/2000/svg">
<path d="M0.484375 121.898C1.26562 120.531 2.27474 119.164 3.51172 117.797C4.7487 116.365 6.3112 114.9 8.19922 113.402C8.39453 112.1 8.58984 110.831 8.78516 109.594C8.98047 108.292 9.11068 106.99 9.17578 105.688C9.37109 104.776 9.66406 103.702 10.0547 102.465C10.5104 101.228 10.9987 99.8932 11.5195 98.4609C12.1055 97.0286 12.8867 95.2383 13.8633 93.0898C14.9049 90.9414 16.2396 88.5326 17.8672 85.8633C19.2344 84.3659 20.6667 82.7383 22.1641 80.9805C23.6615 79.1576 25.1589 77.3346 26.6562 75.5117C27.3724 74.9258 28.1536 74.3724 29 73.8516C29.8464 73.3307 30.6927 72.7448 31.5391 72.0938C32.3203 71.8333 33.1992 71.6055 34.1758 71.4102C35.1523 71.2148 36.2266 71.1172 37.3984 71.1172C39.026 71.1172 40.3281 71.2799 41.3047 71.6055C42.3464 71.931 43.1927 72.4844 43.8438 73.2656C44.2995 73.7865 44.7227 74.5677 45.1133 75.6094C45.569 76.651 45.9922 77.9206 46.3828 79.418C46.5781 80.7201 46.806 82.1523 47.0664 83.7148C47.0664 83.3242 46.9362 83.487 46.6758 84.2031C46.4805 84.9193 46.1549 86.0586 45.6992 87.6211L44.8203 90.7461C43.9089 93.8711 41.8581 97.4844 38.668 101.586C35.4779 105.688 31.181 110.375 25.7773 115.648C25.3216 116.104 24.931 116.69 24.6055 117.406C24.2799 118.057 24.1172 118.773 24.1172 119.555C24.1172 120.922 24.3451 122.126 24.8008 123.168C25.3216 124.21 26.0378 124.991 26.9492 125.512C27.4701 125.902 28.2839 126.293 29.3906 126.684C30.5625 127.074 31.9297 127.432 33.4922 127.758C36.0312 127.562 38.3424 127.139 40.4258 126.488C42.5091 125.837 44.3646 125.056 45.9922 124.145C46.3177 123.949 46.8385 123.689 47.5547 123.363C48.2708 122.973 48.987 122.484 49.7031 121.898C50.5495 123.786 51.2982 125.479 51.9492 126.977C52.6003 128.474 53.1211 129.776 53.5117 130.883C49.8008 134.529 46.4154 137.296 43.3555 139.184C40.3607 141.007 37.5938 141.918 35.0547 141.918C34.013 142.569 32.8086 143.057 31.4414 143.383C30.1393 143.643 28.5768 143.773 26.7539 143.773C24.3451 143.773 22.1966 143.415 20.3086 142.699C18.4857 141.983 16.9557 140.941 15.7188 139.574C15.0677 138.923 14.4167 137.979 13.7656 136.742C13.1146 135.44 12.431 133.91 11.7148 132.152C11.1289 130.72 10.5755 129.678 10.0547 129.027C9.53385 128.311 8.94792 127.953 8.29688 127.953C7.77604 127.953 7.1901 128.214 6.53906 128.734C5.88802 129.19 5.17188 129.906 4.39062 130.883C4.13021 129.906 3.67448 128.702 3.02344 127.27C2.3724 125.837 1.52604 124.047 0.484375 121.898ZM31.7344 90.1602C30.3021 90.1602 28.3815 92.0482 25.9727 95.8242C23.5638 99.5352 22.3594 102.27 22.3594 104.027C22.3594 104.418 22.4245 104.711 22.5547 104.906C22.75 105.036 23.1081 105.102 23.6289 105.102C24.3451 105.102 24.931 104.743 25.3867 104.027C25.8424 103.246 26.2656 102.53 26.6562 101.879C27.3724 101.228 28.056 100.544 28.707 99.8281C29.4232 99.0469 30.1068 98.2982 30.7578 97.582C31.5391 96.6706 32.125 95.7591 32.5156 94.8477C32.9062 93.9362 33.1016 93.0247 33.1016 92.1133C33.1016 91.5273 32.9714 91.0716 32.7109 90.7461C32.5156 90.3555 32.1901 90.1602 31.7344 90.1602ZM49.7031 121.898C49.9635 121.378 50.582 120.499 51.5586 119.262C52.4701 117.96 53.8047 116.365 55.5625 114.477C57.3854 112.654 58.8828 110.961 60.0547 109.398C61.2917 107.771 62.1706 106.339 62.6914 105.102C63.4727 103.604 64.3841 101.716 65.4258 99.4375C66.5326 97.1589 67.737 94.5221 69.0391 91.5273C69.2344 91.2018 70.6341 90.1602 73.2383 88.4023C75.8424 86.5794 77.4701 85.668 78.1211 85.668C78.9674 85.668 79.5859 86.2865 79.9766 87.5234C80.4323 88.6953 80.6602 90.5182 80.6602 92.9922C80.6602 96.638 80.5951 99.6979 80.4648 102.172C80.3997 104.581 80.1719 106.534 79.7812 108.031C79.9115 108.357 80.0417 108.747 80.1719 109.203C80.3021 109.659 80.4648 110.18 80.6602 110.766C80.5299 111.417 80.3672 112.1 80.1719 112.816C80.1719 120.564 80.4648 126.358 81.0508 130.199C81.6367 133.975 82.418 135.863 83.3945 135.863C84.6315 135.863 86.3893 134.236 88.668 130.98C90.9466 127.66 93.7135 122.68 96.9688 116.039C100.224 109.594 102.698 104.32 104.391 100.219C106.083 96.0521 107.06 92.9271 107.32 90.8438C107.906 87.1979 108.85 84.4635 110.152 82.6406C111.52 80.7526 113.342 79.8086 115.621 79.8086C116.272 79.8086 116.728 80.0039 116.988 80.3945C117.249 80.7201 117.379 81.2409 117.379 81.957C117.379 84.5612 117.021 87.2305 116.305 89.9648C115.654 92.6341 114.612 95.3034 113.18 97.9727C113.18 99.7305 112.757 101.716 111.91 103.93C111.129 106.143 109.892 108.585 108.199 111.254C107.613 113.012 107.158 114.737 106.832 116.43C106.702 117.276 105.204 120.271 102.34 125.414C99.5404 130.557 97.75 133.552 96.9688 134.398C96.9688 135.961 96.2201 137.849 94.7227 140.062C93.2253 142.211 90.9141 144.685 87.7891 147.484C87.138 148.331 86.4544 149.145 85.7383 149.926C85.0221 150.707 84.3385 151.488 83.6875 152.27C82.9714 153.181 82.1576 153.865 81.2461 154.32C80.3997 154.841 79.3906 155.102 78.2188 155.102C74.7031 155.102 72.0339 153.767 70.2109 151.098C68.388 148.428 67.4766 144.424 67.4766 139.086C67.6719 138.109 67.8021 137.263 67.8672 136.547C67.5417 135.766 67.2161 134.757 66.8906 133.52C66.5651 132.217 66.3372 130.785 66.207 129.223C66.207 127.139 66.1745 125.447 66.1094 124.145C66.1094 122.842 66.0117 121.964 65.8164 121.508L66.5 119.262L65.5234 118.676C65.0677 118.871 63.8633 119.978 61.9102 121.996C59.957 124.014 57.1901 126.977 53.6094 130.883C53.1536 129.451 52.6003 128.018 51.9492 126.586C51.2982 125.154 50.5495 123.591 49.7031 121.898ZM114.156 121.898C114.938 120.531 115.947 119.164 117.184 117.797C118.421 116.365 119.983 114.9 121.871 113.402C122.066 112.1 122.262 110.831 122.457 109.594C122.652 108.292 122.783 106.99 122.848 105.688C123.043 104.776 123.336 103.702 123.727 102.465C124.182 101.228 124.671 99.8932 125.191 98.4609C125.777 97.0286 126.559 95.2383 127.535 93.0898C128.577 90.9414 129.911 88.5326 131.539 85.8633C132.906 84.3659 134.339 82.7383 135.836 80.9805C137.333 79.1576 138.831 77.3346 140.328 75.5117C141.044 74.9258 141.826 74.3724 142.672 73.8516C143.518 73.3307 144.365 72.7448 145.211 72.0938C145.992 71.8333 146.871 71.6055 147.848 71.4102C148.824 71.2148 149.898 71.1172 151.07 71.1172C152.698 71.1172 154 71.2799 154.977 71.6055C156.018 71.931 156.865 72.4844 157.516 73.2656C157.971 73.7865 158.395 74.5677 158.785 75.6094C159.241 76.651 159.664 77.9206 160.055 79.418C160.25 80.7201 160.478 82.1523 160.738 83.7148C160.738 83.3242 160.608 83.487 160.348 84.2031C160.152 84.9193 159.827 86.0586 159.371 87.6211L158.492 90.7461C157.581 93.8711 155.53 97.4844 152.34 101.586C149.15 105.688 144.853 110.375 139.449 115.648C138.993 116.104 138.603 116.69 138.277 117.406C137.952 118.057 137.789 118.773 137.789 119.555C137.789 120.922 138.017 122.126 138.473 123.168C138.993 124.21 139.71 124.991 140.621 125.512C141.142 125.902 141.956 126.293 143.062 126.684C144.234 127.074 145.602 127.432 147.164 127.758C149.703 127.562 152.014 127.139 154.098 126.488C156.181 125.837 158.036 125.056 159.664 124.145C159.99 123.949 160.51 123.689 161.227 123.363C161.943 122.973 162.659 122.484 163.375 121.898C164.221 123.786 164.97 125.479 165.621 126.977C166.272 128.474 166.793 129.776 167.184 130.883C163.473 134.529 160.087 137.296 157.027 139.184C154.033 141.007 151.266 141.918 148.727 141.918C147.685 142.569 146.48 143.057 145.113 143.383C143.811 143.643 142.249 143.773 140.426 143.773C138.017 143.773 135.868 143.415 133.98 142.699C132.158 141.983 130.628 140.941 129.391 139.574C128.74 138.923 128.089 137.979 127.438 136.742C126.786 135.44 126.103 133.91 125.387 132.152C124.801 130.72 124.247 129.678 123.727 129.027C123.206 128.311 122.62 127.953 121.969 127.953C121.448 127.953 120.862 128.214 120.211 128.734C119.56 129.19 118.844 129.906 118.062 130.883C117.802 129.906 117.346 128.702 116.695 127.27C116.044 125.837 115.198 124.047 114.156 121.898ZM145.406 90.1602C143.974 90.1602 142.053 92.0482 139.645 95.8242C137.236 99.5352 136.031 102.27 136.031 104.027C136.031 104.418 136.096 104.711 136.227 104.906C136.422 105.036 136.78 105.102 137.301 105.102C138.017 105.102 138.603 104.743 139.059 104.027C139.514 103.246 139.938 102.53 140.328 101.879C141.044 101.228 141.728 100.544 142.379 99.8281C143.095 99.0469 143.779 98.2982 144.43 97.582C145.211 96.6706 145.797 95.7591 146.188 94.8477C146.578 93.9362 146.773 93.0247 146.773 92.1133C146.773 91.5273 146.643 91.0716 146.383 90.7461C146.188 90.3555 145.862 90.1602 145.406 90.1602ZM163.375 121.898C164.417 120.531 165.458 119.099 166.5 117.602C171.253 113.695 175.126 109.952 178.121 106.371C181.181 102.725 183.395 99.3398 184.762 96.2148L183.785 91.5273C184.632 89.8997 186.715 87.9792 190.035 85.7656C193.421 83.5521 196.155 82.4453 198.238 82.4453C200.452 82.4453 202.307 83.0964 203.805 84.3984C205.367 85.7005 206.865 87.0677 208.297 88.5C209.013 88.9557 209.534 89.3138 209.859 89.5742C212.464 91.5273 214.417 94.2292 215.719 97.6797C217.021 101.13 217.672 105.329 217.672 110.277C217.672 112.882 216.663 116.625 214.645 121.508C212.626 126.326 211.617 129.971 211.617 132.445C211.617 132.771 211.715 133.031 211.91 133.227C212.171 133.422 212.496 133.52 212.887 133.52C213.733 133.52 214.742 133.161 215.914 132.445C217.086 131.664 218.355 130.622 219.723 129.32C223.173 125.935 225.257 124.079 225.973 123.754C226.689 123.363 227.568 122.745 228.609 121.898C229.13 123.201 229.749 124.6 230.465 126.098C231.181 127.595 231.865 129.19 232.516 130.883C231.93 131.404 231.246 132.022 230.465 132.738C229.749 133.454 228.87 134.268 227.828 135.18C225.615 136.807 222.717 138.793 219.137 141.137C215.621 143.415 211.389 146.052 206.441 149.047C205.139 149.893 203.642 150.577 201.949 151.098C199.215 151.098 197.164 150.707 195.797 149.926C194.43 149.079 193.746 147.745 193.746 145.922C193.746 145.206 193.876 144.392 194.137 143.48C194.462 142.504 194.885 141.462 195.406 140.355C195.797 139.509 196.22 138.663 196.676 137.816C197.132 136.905 197.522 135.993 197.848 135.082C199.28 130.98 200.354 127.172 201.07 123.656C201.852 120.141 202.242 116.983 202.242 114.184C202.242 110.733 201.689 108.096 200.582 106.273C199.54 104.451 197.945 103.409 195.797 103.148C194.365 103.93 192.802 105.036 191.109 106.469C189.417 107.901 187.691 109.691 185.934 111.84C184.046 114.184 182.353 116.104 180.855 117.602C179.358 119.099 178.121 120.108 177.145 120.629C176.559 121.605 175.615 122.712 174.312 123.949C173.01 125.186 171.285 126.521 169.137 127.953C169.007 128.214 168.811 128.604 168.551 129.125C168.29 129.646 167.867 130.232 167.281 130.883C166.76 129.385 166.174 127.921 165.523 126.488C164.872 124.991 164.156 123.461 163.375 121.898ZM228.609 121.898C230.107 120.336 232.385 118.448 235.445 116.234C238.57 114.021 240.882 112.198 242.379 110.766C243.355 109.594 244.625 108.194 246.188 106.566C247.75 104.874 249.605 102.888 251.754 100.609C253.056 99.4375 254.326 98.526 255.562 97.875C256.799 97.224 258.036 96.8984 259.273 96.8984C260.836 96.8984 262.04 97.2891 262.887 98.0703C263.798 98.8516 264.254 100.089 264.254 101.781C264.254 104.32 263.277 108.422 261.324 114.086C259.371 119.75 258.395 124.047 258.395 126.977C258.395 127.628 258.525 128.083 258.785 128.344C259.111 128.604 259.469 128.734 259.859 128.734L260.348 128.637C261.585 127.855 263.017 126.879 264.645 125.707C266.337 124.47 268.225 122.973 270.309 121.215C272.001 119.652 274.085 117.602 276.559 115.062C279.098 112.523 282.06 109.594 285.445 106.273C286.747 105.232 288.212 103.897 289.84 102.27C291.533 100.642 293.421 98.6888 295.504 96.4102C296.35 95.2383 297.522 94.3268 299.02 93.6758C300.582 93.0247 302.47 92.6992 304.684 92.6992C306.181 92.6992 307.288 92.9922 308.004 93.5781C308.785 94.099 309.176 94.9128 309.176 96.0195C309.176 96.4753 309.111 96.931 308.98 97.3867C308.915 97.7773 308.85 98.168 308.785 98.5586C308.329 100.512 307.646 102.921 306.734 105.785C305.823 108.585 304.716 111.905 303.414 115.746C302.307 118.155 301.135 121.052 299.898 124.438C298.727 127.758 297.457 131.436 296.09 135.473L296.773 136.352C298.141 135.701 300.159 134.171 302.828 131.762C305.562 129.288 308.98 126 313.082 121.898L316.988 130.883C316.467 131.404 315.816 132.055 315.035 132.836C314.319 133.552 313.342 134.333 312.105 135.18C305.139 140.128 299.15 145.043 294.137 149.926C289.189 154.743 285.25 159.529 282.32 164.281C277.958 171.443 274.312 177.27 271.383 181.762C268.518 186.254 266.435 189.411 265.133 191.234C260.641 197.159 256.376 201.553 252.34 204.418C248.303 207.283 244.365 208.715 240.523 208.715C239.091 208.715 238.049 208.422 237.398 207.836C236.747 207.25 236.422 206.339 236.422 205.102C236.422 204.451 236.585 203.637 236.91 202.66C237.236 201.684 237.822 200.642 238.668 199.535C239.905 197.777 241.044 195.954 242.086 194.066L245.016 191.527C245.276 190.681 245.406 190.095 245.406 189.77C245.667 189.444 246.025 189.053 246.48 188.598C247.001 188.142 247.587 187.621 248.238 187.035C248.694 185.863 249.898 183.91 251.852 181.176C253.87 178.507 256.669 175.056 260.25 170.824C262.919 167.699 265.361 164.9 267.574 162.426C269.788 160.017 271.676 157.966 273.238 156.273C273.499 155.753 273.759 155.134 274.02 154.418C274.345 153.702 274.605 152.986 274.801 152.27C275.647 150.577 276.559 148.526 277.535 146.117C278.577 143.708 279.814 140.876 281.246 137.621C281.897 135.733 282.451 133.585 282.906 131.176C283.362 128.702 283.785 126.033 284.176 123.168C284.046 122.908 283.948 122.582 283.883 122.191C283.883 121.736 283.753 121.117 283.492 120.336C282.32 120.922 281.018 121.801 279.586 122.973C278.219 124.145 276.721 125.512 275.094 127.074C272.945 129.874 270.764 132.217 268.551 134.105C266.337 135.928 264.156 137.328 262.008 138.305C260.576 141.104 258.72 143.188 256.441 144.555C254.228 145.857 251.656 146.508 248.727 146.508C246.578 146.508 244.951 146.02 243.844 145.043C242.737 144.001 242.184 142.439 242.184 140.355C242.184 139.965 242.216 139.477 242.281 138.891C242.411 138.305 242.574 137.621 242.77 136.84C242.509 136.189 242.184 135.277 241.793 134.105C242.053 132.999 242.281 131.762 242.477 130.395C242.477 128.441 242.314 126.977 241.988 126C241.728 125.023 241.272 124.535 240.621 124.535L240.23 124.73C239.514 125.251 238.505 126.033 237.203 127.074C235.901 128.116 234.339 129.385 232.516 130.883C232.19 130.036 231.799 129.027 231.344 127.855C230.823 126.684 230.302 125.316 229.781 123.754C229.651 123.363 229.488 123.005 229.293 122.68C229.098 122.354 228.87 122.094 228.609 121.898Z" fill="#1182C7"/>
<path d="M340.117 131.874C340.117 128.175 340.847 124.842 342.307 121.873C343.767 118.856 345.787 116.471 348.366 114.719C350.945 112.967 353.89 112.091 357.199 112.091C360.022 112.091 362.552 112.797 364.791 114.208C367.078 115.571 368.855 117.323 370.12 119.464V97.71H379.902V140.05C379.902 141.072 380.072 141.802 380.413 142.24C380.754 142.678 381.338 142.946 382.165 143.043V151C380.462 151.341 379.075 151.511 378.004 151.511C376.252 151.511 374.792 151.073 373.624 150.197C372.505 149.321 371.872 148.177 371.726 146.766L371.58 144.357C370.169 146.742 368.246 148.567 365.813 149.832C363.428 151.097 360.922 151.73 358.294 151.73C355.666 151.73 353.233 151.219 350.994 150.197C348.804 149.175 346.882 147.764 345.227 145.963C343.621 144.162 342.356 142.07 341.431 139.685C340.555 137.252 340.117 134.648 340.117 131.874ZM370.12 136.984V127.859C369.633 126.448 368.855 125.182 367.784 124.063C366.713 122.944 365.521 122.068 364.207 121.435C362.893 120.754 361.579 120.413 360.265 120.413C358.756 120.413 357.394 120.729 356.177 121.362C354.96 121.995 353.89 122.846 352.965 123.917C352.089 124.988 351.408 126.229 350.921 127.64C350.483 129.051 350.264 130.536 350.264 132.093C350.264 133.65 350.507 135.135 350.994 136.546C351.529 137.909 352.284 139.101 353.257 140.123C354.23 141.145 355.35 141.948 356.615 142.532C357.929 143.116 359.34 143.408 360.849 143.408C361.774 143.408 362.698 143.262 363.623 142.97C364.596 142.629 365.497 142.191 366.324 141.656C367.2 141.072 367.954 140.391 368.587 139.612C369.268 138.785 369.779 137.909 370.12 136.984ZM412.28 121.216C409.311 121.216 406.659 121.8 404.323 122.968C401.987 124.087 400.308 125.718 399.286 127.859V151H389.504V112.748H398.483V120.924C399.845 118.296 401.573 116.228 403.666 114.719C405.758 113.21 407.973 112.383 410.309 112.237C410.844 112.237 411.258 112.237 411.55 112.237C411.842 112.237 412.085 112.261 412.28 112.31V121.216ZM434.901 151.73C431.787 151.73 428.988 151.219 426.506 150.197C424.024 149.126 421.907 147.666 420.155 145.817C418.452 143.968 417.138 141.851 416.213 139.466C415.289 137.081 414.826 134.575 414.826 131.947C414.826 129.27 415.289 126.74 416.213 124.355C417.138 121.97 418.452 119.853 420.155 118.004C421.907 116.155 424.024 114.719 426.506 113.697C428.988 112.626 431.787 112.091 434.901 112.091C438.016 112.091 440.79 112.626 443.223 113.697C445.705 114.719 447.822 116.155 449.574 118.004C451.326 119.853 452.64 121.97 453.516 124.355C454.441 126.74 454.903 129.27 454.903 131.947C454.903 134.575 454.441 137.081 453.516 139.466C452.64 141.851 451.326 143.968 449.574 145.817C447.871 147.666 445.778 149.126 443.296 150.197C440.814 151.219 438.016 151.73 434.901 151.73ZM424.9 131.947C424.9 134.186 425.338 136.181 426.214 137.933C427.09 139.636 428.283 140.975 429.791 141.948C431.3 142.921 433.003 143.408 434.901 143.408C436.751 143.408 438.43 142.921 439.938 141.948C441.447 140.926 442.639 139.563 443.515 137.86C444.44 136.108 444.902 134.113 444.902 131.874C444.902 129.684 444.44 127.713 443.515 125.961C442.639 124.209 441.447 122.846 439.938 121.873C438.43 120.9 436.751 120.413 434.901 120.413C433.003 120.413 431.3 120.924 429.791 121.946C428.283 122.919 427.09 124.282 426.214 126.034C425.338 127.737 424.9 129.708 424.9 131.947ZM484.428 151.73C481.459 151.73 478.831 151.073 476.544 149.759C474.305 148.396 472.553 146.571 471.288 144.284V166.549H461.506V112.748H470.047V119.318C471.507 117.079 473.356 115.327 475.595 114.062C477.833 112.748 480.388 112.091 483.26 112.091C485.839 112.091 488.199 112.602 490.341 113.624C492.531 114.646 494.429 116.082 496.035 117.931C497.641 119.732 498.882 121.824 499.758 124.209C500.682 126.545 501.145 129.076 501.145 131.801C501.145 135.5 500.415 138.858 498.955 141.875C497.543 144.892 495.572 147.301 493.042 149.102C490.56 150.854 487.688 151.73 484.428 151.73ZM481.143 143.408C482.651 143.408 484.014 143.092 485.231 142.459C486.447 141.826 487.494 140.975 488.37 139.904C489.294 138.785 489.976 137.544 490.414 136.181C490.9 134.77 491.144 133.31 491.144 131.801C491.144 130.195 490.876 128.711 490.341 127.348C489.854 125.985 489.124 124.793 488.151 123.771C487.177 122.7 486.034 121.873 484.72 121.289C483.454 120.705 482.067 120.413 480.559 120.413C479.634 120.413 478.685 120.583 477.712 120.924C476.787 121.216 475.887 121.654 475.011 122.238C474.135 122.822 473.356 123.503 472.675 124.282C472.042 125.061 471.58 125.912 471.288 126.837V135.816C471.872 137.227 472.65 138.517 473.624 139.685C474.646 140.853 475.814 141.778 477.128 142.459C478.442 143.092 479.78 143.408 481.143 143.408Z" fill="#1182C7"/>
<path opacity="0.4" d="M217.38 309.35C206.413 309.35 196.7 307.627 188.24 304.18C179.937 300.733 172.887 296.033 167.09 290.08C161.293 283.97 156.907 277.077 153.93 269.4C150.953 261.723 149.465 253.655 149.465 245.195C149.465 233.915 152.05 223.418 157.22 213.705C162.547 203.835 170.223 195.923 180.25 189.97C190.433 184.017 202.81 181.04 217.38 181.04C232.263 181.04 244.797 184.173 254.98 190.44C265.163 196.707 272.762 204.775 277.775 214.645L234.3 227.805C232.263 224.828 229.757 222.557 226.78 220.99C223.96 219.423 220.748 218.64 217.145 218.64C213.072 218.64 209.39 219.737 206.1 221.93C202.81 223.967 200.147 226.943 198.11 230.86C196.23 234.777 195.29 239.555 195.29 245.195C195.29 250.678 196.23 255.457 198.11 259.53C200.147 263.447 202.81 266.502 206.1 268.695C209.39 270.732 213.072 271.75 217.145 271.75C219.652 271.75 221.923 271.437 223.96 270.81C225.997 270.027 227.877 268.93 229.6 267.52C231.48 266.11 233.047 264.465 234.3 262.585L277.775 275.745C274.485 282.325 269.942 288.122 264.145 293.135C258.505 298.148 251.768 302.143 243.935 305.12C236.258 307.94 227.407 309.35 217.38 309.35ZM351.627 309.35C340.661 309.35 330.947 307.627 322.487 304.18C314.027 300.733 306.899 296.033 301.102 290.08C295.462 283.97 291.154 277.077 288.177 269.4C285.357 261.723 283.947 253.655 283.947 245.195C283.947 236.735 285.357 228.667 288.177 220.99C291.154 213.157 295.462 206.263 301.102 200.31C306.899 194.357 314.027 189.657 322.487 186.21C330.947 182.763 340.661 181.04 351.627 181.04C362.751 181.04 372.464 182.763 380.767 186.21C389.227 189.657 396.277 194.357 401.917 200.31C407.714 206.263 412.022 213.157 414.842 220.99C417.819 228.667 419.307 236.735 419.307 245.195C419.307 253.655 417.819 261.723 414.842 269.4C412.022 277.077 407.714 283.97 401.917 290.08C396.277 296.033 389.227 300.733 380.767 304.18C372.464 307.627 362.751 309.35 351.627 309.35ZM329.772 245.195C329.772 250.678 330.712 255.457 332.592 259.53C334.472 263.447 337.057 266.502 340.347 268.695C343.637 270.732 347.397 271.75 351.627 271.75C355.857 271.75 359.617 270.732 362.907 268.695C366.197 266.502 368.782 263.447 370.662 259.53C372.542 255.457 373.482 250.678 373.482 245.195C373.482 239.712 372.542 235.012 370.662 231.095C368.782 227.022 366.197 223.967 362.907 221.93C359.617 219.737 355.857 218.64 351.627 218.64C347.397 218.64 343.637 219.737 340.347 221.93C337.057 223.967 334.472 227.022 332.592 231.095C330.712 235.012 329.772 239.712 329.772 245.195ZM433.938 264.7V183.39H478.588V254.595C478.588 259.922 479.763 264.152 482.113 267.285C484.62 270.262 487.988 271.75 492.218 271.75C494.568 271.75 496.918 271.437 499.268 270.81C501.618 270.183 503.968 268.93 506.318 267.05C508.825 265.17 511.253 262.507 513.603 259.06V183.39H558.253V257.65C558.253 261.88 558.88 264.857 560.133 266.58C561.386 268.147 563.58 269.087 566.713 269.4V307C562.796 307.783 559.271 308.332 556.138 308.645C553.005 309.115 550.263 309.35 547.913 309.35C540.393 309.35 534.44 307.94 530.053 305.12C525.666 302.3 522.846 297.992 521.593 292.195L520.653 287.73C514.856 295.407 507.885 300.968 499.738 304.415C491.748 307.705 482.661 309.35 472.478 309.35C460.101 309.35 450.545 305.512 443.808 297.835C437.228 290.158 433.938 279.113 433.938 264.7ZM709.286 307H664.636V237.44C664.636 231.33 663.226 226.943 660.406 224.28C657.743 221.46 654.61 220.05 651.006 220.05C648.5 220.05 645.836 220.833 643.016 222.4C640.196 223.81 637.611 225.847 635.261 228.51C632.911 231.173 631.031 234.228 629.621 237.675V307H584.971V183.39H625.156V201.72C628.133 197.177 631.893 193.417 636.436 190.44C640.98 187.307 646.228 184.957 652.181 183.39C658.135 181.823 664.636 181.04 671.686 181.04C680.146 181.04 686.883 182.528 691.896 185.505C696.91 188.482 700.67 192.32 703.176 197.02C705.683 201.72 707.328 206.655 708.111 211.825C708.895 216.838 709.286 221.46 709.286 225.69V307ZM817.643 300.185C813.57 301.908 809.183 303.553 804.483 305.12C799.94 306.53 795.24 307.627 790.383 308.41C785.683 309.193 781.062 309.585 776.518 309.585C769.782 309.585 763.593 308.488 757.953 306.295C752.313 303.945 747.77 300.185 744.323 295.015C741.033 289.688 739.388 282.56 739.388 273.63V216.995H724.113V183.39H739.388V144.615H784.038V183.39H808.243V216.995H784.038V257.885C784.038 261.958 784.9 264.857 786.623 266.58C788.347 268.147 790.697 268.93 793.673 268.93C795.867 268.93 798.373 268.538 801.193 267.755C804.013 266.972 806.833 266.032 809.653 264.935L817.643 300.185ZM879.884 309.35C869.074 309.35 858.42 307.627 847.924 304.18C837.584 300.577 828.81 295.407 821.604 288.67L836.879 261.175C844.555 266.188 851.919 270.105 858.969 272.925C866.175 275.745 872.677 277.155 878.474 277.155C881.764 277.155 884.192 276.763 885.759 275.98C887.325 275.04 888.109 273.552 888.109 271.515C888.109 270.105 887.56 268.93 886.464 267.99C885.367 267.05 883.565 266.11 881.059 265.17C878.709 264.23 875.654 263.212 871.894 262.115C862.18 258.668 854.034 255.457 847.454 252.48C841.03 249.503 836.174 245.9 832.884 241.67C829.75 237.283 828.184 231.487 828.184 224.28C828.184 215.82 830.299 208.378 834.529 201.955C838.759 195.375 844.79 190.205 852.624 186.445C860.614 182.685 870.17 180.805 881.294 180.805C889.597 180.805 897.9 182.137 906.204 184.8C914.664 187.307 922.81 191.928 930.644 198.665L913.724 225.925C905.89 221.068 899.232 217.622 893.749 215.585C888.422 213.548 883.644 212.53 879.414 212.53C877.377 212.53 875.575 212.765 874.009 213.235C872.599 213.705 871.502 214.41 870.719 215.35C869.935 216.29 869.544 217.543 869.544 219.11C869.544 220.677 870.092 222.008 871.189 223.105C872.285 224.045 874.009 224.985 876.359 225.925C878.709 226.708 881.685 227.648 885.289 228.745C895.942 231.878 904.637 235.09 911.374 238.38C918.11 241.513 923.045 245.352 926.179 249.895C929.469 254.438 931.114 260.392 931.114 267.755C931.114 280.758 926.492 290.942 917.249 298.305C908.162 305.668 895.707 309.35 879.884 309.35Z" fill="#1182C7"/>
</svg>
