<svg width="202" height="70" viewBox="0 0 202 70" fill="none" xmlns="http://www.w3.org/2000/svg">
<g clip-path="url(#clip0_60_15305)">
<path d="M29.4608 12.165C15.0394 21.4553 10.5744 37.1951 10.5744 37.1951C10.5744 17.2417 32.7297 0 32.7297 0C-1.60428 16.3107 -11.5538 59.0718 15.5763 68.5932C18.0417 69.459 20.6536 69.8308 23.2627 69.6867C25.8718 69.5433 28.4271 68.8868 30.7824 67.7551C33.1377 66.6235 35.247 65.0389 36.9898 63.0919C38.7326 61.1449 40.0747 58.8736 40.9394 56.4078C47.0219 39.0777 29.3792 28.5165 29.4608 12.165Z" fill="#1182C7"/>
<path d="M47.2737 44.8816L49.8834 44.2291V25.0913L47.2737 24.4388V23.7864H51.1882C52.899 23.7864 54.2474 24.3374 55.2333 25.4392C55.6103 25.8742 55.9292 26.4106 56.1902 27.0485C56.5961 26.2947 57.0746 25.6422 57.6255 25.0913C58.9304 23.7864 60.5542 23.134 62.497 23.134C64.1208 23.134 65.5707 23.4819 66.8465 24.1779C68.1514 24.8448 69.166 25.7292 69.8912 26.8311C70.6163 27.9329 70.9785 29.0928 70.9785 30.3107V44.2291L73.5882 44.8816V45.534H67.9339C65.3242 45.534 64.0193 44.2291 64.0193 41.6194V30.3107C64.0193 28.4839 63.6858 27.092 63.0189 26.1351C62.381 25.1492 61.6271 24.6563 60.7572 24.6563C59.6553 24.6563 58.6694 25.2362 57.7995 26.3961C57.4225 26.889 57.1036 27.469 56.8426 28.1359V44.2291L59.4523 44.8816V45.534H47.2737V44.8816ZM87.9437 46.1864C84.2316 46.1864 81.3467 45.1715 79.2881 43.1417C77.2289 41.083 76.2 38.2558 76.2 34.6602C76.2 32.3115 76.6492 30.2672 77.5483 28.5274C78.4468 26.7876 79.6939 25.4537 81.2889 24.5258C82.9125 23.598 84.7685 23.134 86.8563 23.134C88.9441 23.134 90.7709 23.5254 92.3367 24.3084C93.9311 25.0913 95.1489 26.1496 95.9903 27.4835C96.8602 28.7883 97.2951 30.2382 97.2951 31.833C97.2951 32.558 97.2224 33.1814 97.0777 33.7033L96.8602 34.4427C95.6131 34.7037 94.2647 34.9212 92.8151 35.0951C89.7705 35.5301 86.6966 35.7476 83.5942 35.7476C83.5942 39.1112 84.0577 41.518 84.986 42.9678C85.9137 44.3886 87.1893 45.099 88.8136 45.099C89.9445 45.099 90.9883 44.8381 91.9452 44.3161C92.9307 43.7652 93.6993 43.0548 94.2505 42.1849C94.8302 41.2859 95.1204 40.3725 95.1204 39.4447H96.2071C96.2071 40.6046 95.8598 41.7064 95.1639 42.7503C94.4679 43.7942 93.4961 44.6351 92.2497 45.273C91.0026 45.8819 89.5673 46.1864 87.9437 46.1864ZM83.5942 34.6602C85.4495 34.6602 86.9576 34.5877 88.1177 34.4427C88.6104 34.4137 89.1323 34.3413 89.6835 34.2252C89.712 34.0803 89.7848 33.7613 89.901 33.2683C90.0457 32.5434 90.1184 31.775 90.1184 30.9631C90.1184 28.5564 89.799 26.802 89.1616 25.7002C88.5234 24.5693 87.7547 24.0039 86.8563 24.0039C84.6815 24.0039 83.5942 27.556 83.5942 34.6602ZM112.282 46.1864C108.571 46.1864 105.685 45.1715 103.626 43.1417C101.568 41.083 100.538 38.2558 100.538 34.6602C100.538 32.3115 100.987 30.2672 101.887 28.5274C102.786 26.7876 104.032 25.4537 105.627 24.5258C107.251 23.598 109.107 23.134 111.195 23.134C113.282 23.134 115.109 23.5254 116.675 24.3084C118.27 25.0913 119.488 26.1496 120.329 27.4835C121.198 28.7883 121.633 30.2382 121.633 31.833C121.633 32.558 121.561 33.1814 121.416 33.7033L121.198 34.4427C119.951 34.7037 118.603 34.9212 117.153 35.0951C114.109 35.5301 111.035 35.7476 107.932 35.7476C107.932 39.1112 108.397 41.518 109.324 42.9678C110.252 44.3886 111.528 45.099 113.152 45.099C114.283 45.099 115.327 44.8381 116.283 44.3161C117.27 43.7652 118.038 43.0548 118.589 42.1849C119.168 41.2859 119.459 40.3725 119.459 39.4447H120.546C120.546 40.6046 120.198 41.7064 119.502 42.7503C118.806 43.7942 117.835 44.6351 116.588 45.273C115.341 45.8819 113.906 46.1864 112.282 46.1864ZM107.932 34.6602C109.788 34.6602 111.296 34.5877 112.456 34.4427C112.949 34.4137 113.471 34.3413 114.022 34.2252C114.051 34.0803 114.123 33.7613 114.239 33.2683C114.384 32.5434 114.457 31.775 114.457 30.9631C114.457 28.5564 114.138 26.802 113.5 25.7002C112.862 24.5693 112.094 24.0039 111.195 24.0039C109.02 24.0039 107.932 27.556 107.932 34.6602ZM124.877 44.8816L127.487 44.2291V25.0913L124.877 24.4388V23.7864H128.792C130.502 23.7864 131.851 24.3374 132.837 25.4392C133.213 25.8742 133.533 26.4106 133.794 27.0485C134.229 26.4106 134.765 25.8307 135.403 25.3087C136.853 24.1488 138.476 23.5689 140.274 23.5689C141.811 23.5689 142.956 23.9314 143.711 24.6563C144.493 25.3522 144.885 26.3671 144.885 27.701C144.885 28.6869 144.58 29.4843 143.972 30.0932C143.391 30.6731 142.608 30.9631 141.623 30.9631C141.216 30.9631 140.811 30.9341 140.405 30.8761L139.883 30.7456V24.6563C138.404 24.6563 137.056 25.2362 135.838 26.3961C135.258 26.976 134.794 27.556 134.446 28.1359V44.2291L137.056 44.8816V45.534H124.877V44.8816ZM146.619 54.8854C144.445 54.8854 142.85 54.523 141.835 53.7981C140.82 53.0731 140.313 52.0583 140.313 50.7534C140.313 49.7675 140.617 48.9701 141.226 48.3612C141.806 47.7813 142.589 47.4913 143.575 47.4913C143.806 47.4913 144.039 47.5057 144.271 47.5348C144.502 47.5927 144.662 47.6217 144.749 47.6217L145.314 47.7087V53.7981L145.575 53.9285C145.866 53.9865 146.068 54.0155 146.184 54.0155C147.083 54.0155 147.808 53.4646 148.359 52.3627C148.939 51.2898 149.229 49.4485 149.229 46.8388V25.0913L146.619 24.4388V23.7864H152.274C154.883 23.7864 156.188 25.0913 156.188 27.701V46.8388C156.188 48.3756 155.811 49.753 155.057 50.9709C154.304 52.1887 153.201 53.1456 151.752 53.8416C150.302 54.5375 148.591 54.8854 146.619 54.8854ZM152.274 21.1767C151.404 21.1767 150.679 20.8867 150.099 20.3068C149.519 19.7269 149.229 19.0019 149.229 18.132C149.229 17.2621 149.519 16.5372 150.099 15.9573C150.679 15.3774 151.404 15.0874 152.274 15.0874C153.144 15.0874 153.869 15.3774 154.448 15.9573C155.028 16.5372 155.318 17.2621 155.318 18.132C155.318 19.0019 155.028 19.7269 154.448 20.3068C153.869 20.8867 153.144 21.1767 152.274 21.1767ZM169.675 46.1864C167.095 46.1864 165.108 45.6354 163.716 44.5336C162.324 43.4317 161.629 42.0253 161.629 40.3146C161.629 39.1837 161.875 38.0673 162.368 36.9654C162.571 36.4435 162.832 35.965 163.151 35.5301C164.34 35.2401 165.63 34.9791 167.022 34.7472C170.154 34.2252 172.923 33.9063 175.329 33.7903V32.4854C175.329 29.2668 174.938 27.0485 174.155 25.8307C173.372 24.6128 172.169 24.0039 170.545 24.0039C169.936 24.0039 169.414 24.0764 168.979 24.2214L168.37 24.4388V30.9631L167.805 31.0936C167.341 31.1516 166.949 31.1806 166.63 31.1806C165.644 31.1806 164.847 30.8906 164.238 30.3107C163.659 29.7017 163.368 28.9044 163.368 27.9184C163.368 26.5846 164.035 25.4537 165.369 24.5258C166.732 23.598 168.747 23.134 171.415 23.134C173.677 23.134 175.62 23.5399 177.243 24.3518C178.896 25.1348 180.143 26.2366 180.984 27.6575C181.854 29.0493 182.289 30.6586 182.289 32.4854V44.2291L184.898 44.8816V45.534H180.984C179.244 45.534 177.896 44.9976 176.939 43.9247C176.533 43.4897 176.214 42.9387 175.982 42.2718C175.576 42.9968 175.098 43.6492 174.547 44.2291C173.242 45.534 171.618 46.1864 169.675 46.1864ZM171.415 44.6641C172.488 44.6641 173.459 44.0842 174.329 42.9243C174.648 42.4893 174.982 41.9094 175.329 41.1845V34.8777C173.995 34.8777 172.72 34.9502 171.502 35.0951C170.603 35.2112 169.994 35.2836 169.675 35.3126C169.53 35.6316 169.385 36.0665 169.24 36.6175C168.95 37.7193 168.805 38.8067 168.805 39.8796C168.805 41.5034 169.052 42.7068 169.545 43.4897C170.037 44.2726 170.661 44.6641 171.415 44.6641ZM187.529 44.8816L190.138 44.2291V16.3922L187.529 15.7398V15.0874H193.183C195.793 15.0874 197.097 16.3922 197.097 19.0019V44.2291L199.707 44.8816V45.534H187.529V44.8816Z" fill="#1182C7"/>
<path d="M51.1441 62.0472C51.0381 62.1179 50.8938 62.1974 50.7112 62.2857C50.5286 62.3741 50.3136 62.4507 50.0662 62.5154C49.8248 62.5744 49.5597 62.6009 49.2711 62.5949C48.7704 62.589 48.3228 62.5007 47.9282 62.3299C47.5335 62.1591 47.1949 61.9264 46.9122 61.6319C46.6354 61.3315 46.4233 60.9899 46.2761 60.6071C46.1288 60.2243 46.0552 59.8149 46.0552 59.379C46.0552 58.9019 46.1318 58.4631 46.2849 58.0626C46.4439 57.6562 46.6648 57.3057 46.9475 57.0113C47.2302 56.7109 47.563 56.4782 47.9459 56.3133C48.3346 56.1484 48.7587 56.0659 49.2181 56.0659C49.6009 56.0659 49.9485 56.1189 50.2606 56.225C50.5728 56.3251 50.8408 56.4429 51.0646 56.5783L50.72 57.3823C50.5433 57.2645 50.3284 57.1526 50.0751 57.0466C49.8218 56.9406 49.545 56.8876 49.2446 56.8876C48.9324 56.8876 48.6379 56.9523 48.3611 57.0819C48.0843 57.2056 47.8398 57.3794 47.6278 57.6032C47.4158 57.8212 47.2479 58.0803 47.1242 58.3807C47.0064 58.6752 46.9475 58.9932 46.9475 59.3349C46.9475 59.7943 47.0418 60.2095 47.2302 60.5806C47.4246 60.9457 47.6956 61.2344 48.043 61.4464C48.3964 61.6584 48.8088 61.7645 49.2799 61.7645C49.6098 61.7645 49.8984 61.7174 50.1458 61.6231C50.3991 61.523 50.6081 61.4081 50.773 61.2785L51.1441 62.0472ZM52.0129 59.3349C52.0129 58.8931 52.0954 58.4749 52.2603 58.0803C52.4311 57.6856 52.6667 57.3382 52.9671 57.0378C53.2675 56.7374 53.612 56.5018 54.0008 56.331C54.3954 56.1543 54.8165 56.0659 55.2642 56.0659C55.7118 56.0659 56.1329 56.1543 56.5276 56.331C56.9281 56.5018 57.2786 56.7374 57.5789 57.0378C57.8793 57.3382 58.1149 57.6856 58.2857 58.0803C58.4565 58.4749 58.542 58.8931 58.542 59.3349C58.542 59.7884 58.4565 60.2124 58.2857 60.6071C58.1149 60.9958 57.8793 61.3404 57.5789 61.6408C57.2786 61.9412 56.9281 62.1768 56.5276 62.3476C56.1329 62.5125 55.7118 62.5949 55.2642 62.5949C54.8165 62.5949 54.3954 62.5125 54.0008 62.3476C53.612 62.1826 53.2675 61.9529 52.9671 61.6584C52.6667 61.364 52.4311 61.0194 52.2603 60.6248C52.0954 60.2243 52.0129 59.7943 52.0129 59.3349ZM52.8964 59.3437C52.8964 59.6794 52.9583 59.9945 53.082 60.289C53.2056 60.5777 53.3764 60.8339 53.5944 61.0577C53.8123 61.2815 54.0656 61.4552 54.3542 61.5789C54.6428 61.7026 54.955 61.7645 55.2907 61.7645C55.7324 61.7645 56.13 61.6584 56.4834 61.4464C56.8427 61.2285 57.1284 60.9369 57.3404 60.5717C57.5524 60.2007 57.6585 59.7884 57.6585 59.3349C57.6585 58.9991 57.5966 58.684 57.4729 58.3895C57.3492 58.0891 57.1784 57.827 56.9605 57.6032C56.7425 57.3794 56.4893 57.2056 56.2007 57.0819C55.9121 56.9523 55.6028 56.8876 55.273 56.8876C54.8254 56.8876 54.4219 56.9995 54.0626 57.2233C53.7033 57.4471 53.4177 57.7446 53.2056 58.1156C52.9994 58.4867 52.8964 58.896 52.8964 59.3437ZM65.3486 62.7275L60.6572 57.9743L60.6749 62.5243H59.8091V55.9422H59.8533L64.5358 60.7661L64.5181 56.1366H65.3751V62.7275H65.3486ZM70.3391 57.2763C70.1216 57.1644 69.883 57.0672 69.6234 56.9848C69.3645 56.9023 69.1144 56.8611 68.8725 56.8611C68.5252 56.8611 68.2486 56.9406 68.042 57.0996C67.842 57.2586 67.7419 57.4736 67.7419 57.7446C67.7419 57.9389 67.8067 58.1039 67.9362 58.2393C68.0719 58.3748 68.2425 58.4955 68.4484 58.6015C68.6604 58.7017 68.8847 58.7959 69.1198 58.8843C69.3849 58.9844 69.6411 59.1051 69.8885 59.2465C70.1359 59.3879 70.3391 59.5793 70.4981 59.8208C70.6632 60.0564 70.7455 60.3745 70.7455 60.775C70.7455 61.1166 70.6605 61.4258 70.4893 61.7026C70.3187 61.9736 70.0774 62.1915 69.7648 62.3564C69.4528 62.5154 69.0818 62.5949 68.6516 62.5949C68.2275 62.5949 67.8332 62.5272 67.468 62.3917C67.1087 62.2563 66.8024 62.1002 66.5491 61.9235L66.929 61.2432C67.1352 61.4022 67.3885 61.5407 67.6889 61.6584C67.9951 61.7762 68.2866 61.8351 68.5632 61.8351C68.7698 61.8351 68.9696 61.7998 69.164 61.7291C69.3645 61.6584 69.5296 61.5465 69.6588 61.3934C69.7886 61.2344 69.8531 61.0312 69.8531 60.7838C69.8531 60.5717 69.7947 60.3921 69.6764 60.2449C69.5589 60.0976 69.406 59.9739 69.217 59.8738C69.0349 59.7678 68.8344 59.6735 68.6162 59.5911C68.4164 59.5204 68.2132 59.4379 68.0066 59.3437C67.8008 59.2494 67.6093 59.1376 67.4326 59.008C67.2618 58.8725 67.1234 58.7076 67.0174 58.5132C66.9114 58.3188 66.8584 58.0832 66.8584 57.8064C66.8584 57.4707 66.9379 57.1791 67.0969 56.9317C67.2618 56.6785 67.4856 56.4812 67.7684 56.3398C68.0508 56.1925 68.3777 56.113 68.7488 56.1013C69.1552 56.1013 69.5147 56.1513 69.8266 56.2515C70.1447 56.3516 70.4247 56.4723 70.666 56.6137L70.3391 57.2763ZM72.0007 56.1366H76.1531V56.9582H72.8577V58.9019H75.7997V59.7236H72.8577V61.6938H76.2768V62.5243H72.0007V56.1366ZM79.3011 56.1366C79.7252 56.1366 80.1078 56.2132 80.4496 56.3663C80.7915 56.5136 81.062 56.7374 81.2625 57.0378C81.4629 57.3322 81.5628 57.6916 81.5628 58.1156C81.5628 58.4808 81.4806 58.8342 81.3155 59.1758C81.1564 59.5175 80.8853 59.7766 80.5027 59.9533L82.1106 62.5243H81.1123L79.6015 60.1653C79.5369 60.1712 79.469 60.1742 79.3983 60.1742H78.4529V62.5243H77.596V56.1366H79.3011ZM79.3806 59.3437C79.7225 59.3437 79.9841 59.2818 80.1669 59.1582C80.3552 59.0285 80.4877 58.8725 80.5645 58.6899C80.6413 58.5014 80.6794 58.3218 80.6794 58.151C80.6794 57.9802 80.6379 57.8035 80.5557 57.6209C80.4734 57.4383 80.3409 57.2822 80.1581 57.1526C79.9814 57.023 79.7428 56.9582 79.4425 56.9582H78.4529V59.3437H79.3806ZM83.478 56.1366L85.3157 60.7396L87.0915 56.1366H88.0987L85.2803 62.8158L82.462 56.1366H83.478ZM89.1922 56.1366H93.3446V56.9582H90.0492V58.9019H92.9912V59.7236H90.0492V61.6938H93.4683V62.5243H89.1922V56.1366ZM96.8494 56.1631H97.8477L99.491 60.8103L100.604 57.9213L99.9239 56.1631H100.772L102.548 60.7131L104.121 56.1631H105.039L102.521 62.807L101.028 58.9991L99.3938 62.8158L96.8494 56.1631ZM104.695 62.5243L107.487 55.8715H107.54L110.331 62.5243H109.342L108.679 60.8456H106.223L105.543 62.5243H104.695ZM106.524 60.1035H108.388L107.478 57.7799L106.524 60.1035ZM110.389 56.1366H114.63V56.9582H112.916V62.5243H112.059V56.9582H110.389V56.1366ZM115.823 56.1366H119.975V56.9582H116.68V58.9019H119.622V59.7236H116.68V61.6938H120.099V62.5243H115.823V56.1366ZM123.124 56.1366C123.548 56.1366 123.931 56.2132 124.272 56.3663C124.614 56.5136 124.885 56.7374 125.085 57.0378C125.285 57.3322 125.386 57.6916 125.386 58.1156C125.386 58.4808 125.303 58.8342 125.138 59.1758C124.979 59.5175 124.708 59.7766 124.325 59.9533L125.933 62.5243H124.935L123.424 60.1653C123.359 60.1712 123.292 60.1742 123.221 60.1742H122.276V62.5243H121.419V56.1366H123.124ZM123.203 59.3437C123.545 59.3437 123.807 59.2818 123.99 59.1582C124.178 59.0285 124.31 58.8725 124.387 58.6899C124.463 58.5014 124.502 58.3218 124.502 58.151C124.502 57.9802 124.461 57.8035 124.378 57.6209C124.295 57.4383 124.163 57.2822 123.981 57.1526C123.804 57.023 123.566 56.9582 123.265 56.9582H122.276V59.3437H123.203ZM127.622 61.7468C127.486 62.0589 127.354 62.3682 127.225 62.6745C127.101 62.9808 126.977 63.287 126.854 63.5933H126.173C126.291 63.287 126.406 62.9808 126.518 62.6745C126.635 62.3682 126.753 62.0589 126.871 61.7468H127.622ZM136.002 62.0472C135.896 62.1179 135.752 62.1974 135.569 62.2857C135.387 62.3741 135.171 62.4507 134.924 62.5154C134.683 62.5744 134.418 62.6009 134.129 62.5949C133.629 62.589 133.181 62.5007 132.786 62.3299C132.392 62.1591 132.053 61.9264 131.77 61.6319C131.493 61.3315 131.281 60.9899 131.134 60.6071C130.987 60.2243 130.913 59.8149 130.913 59.379C130.913 58.9019 130.99 58.4631 131.143 58.0626C131.302 57.6562 131.522 57.3057 131.805 57.0113C132.088 56.7109 132.421 56.4782 132.804 56.3133C133.192 56.1484 133.616 56.0659 134.076 56.0659C134.459 56.0659 134.806 56.1189 135.118 56.225C135.431 56.3251 135.699 56.4429 135.922 56.5783L135.578 57.3823C135.401 57.2645 135.186 57.1526 134.933 57.0466C134.68 56.9406 134.403 56.8876 134.102 56.8876C133.79 56.8876 133.496 56.9523 133.219 57.0819C132.942 57.2056 132.698 57.3794 132.485 57.6032C132.273 57.8212 132.106 58.0803 131.982 58.3807C131.864 58.6752 131.805 58.9932 131.805 59.3349C131.805 59.7943 131.9 60.2095 132.088 60.5806C132.282 60.9457 132.553 61.2344 132.901 61.4464C133.254 61.6584 133.667 61.7645 134.138 61.7645C134.468 61.7645 134.756 61.7174 135.003 61.6231C135.257 61.523 135.466 61.4081 135.631 61.2785L136.002 62.0472ZM136.871 59.3349C136.871 58.8931 136.953 58.4749 137.118 58.0803C137.289 57.6856 137.525 57.3382 137.825 57.0378C138.126 56.7374 138.47 56.5018 138.859 56.331C139.253 56.1543 139.674 56.0659 140.122 56.0659C140.569 56.0659 140.991 56.1543 141.386 56.331C141.786 56.5018 142.137 56.7374 142.437 57.0378C142.737 57.3382 142.973 57.6856 143.144 58.0803C143.314 58.4749 143.4 58.8931 143.4 59.3349C143.4 59.7884 143.314 60.2124 143.144 60.6071C142.973 60.9958 142.737 61.3404 142.437 61.6408C142.137 61.9412 141.786 62.1768 141.386 62.3476C140.991 62.5125 140.569 62.5949 140.122 62.5949C139.674 62.5949 139.253 62.5125 138.859 62.3476C138.47 62.1826 138.126 61.9529 137.825 61.6584C137.525 61.364 137.289 61.0194 137.118 60.6248C136.953 60.2243 136.871 59.7943 136.871 59.3349ZM137.755 59.3437C137.755 59.6794 137.816 59.9945 137.94 60.289C138.064 60.5777 138.234 60.8339 138.452 61.0577C138.67 61.2815 138.923 61.4552 139.212 61.5789C139.5 61.7026 139.813 61.7645 140.149 61.7645C140.591 61.7645 140.988 61.6584 141.341 61.4464C141.7 61.2285 141.986 60.9369 142.198 60.5717C142.411 60.2007 142.517 59.7884 142.517 59.3349C142.517 58.9991 142.455 58.684 142.331 58.3895C142.207 58.0891 142.036 57.827 141.819 57.6032C141.6 57.3794 141.347 57.2056 141.059 57.0819C140.77 56.9523 140.461 56.8876 140.131 56.8876C139.683 56.8876 139.28 56.9995 138.921 57.2233C138.561 57.4471 138.276 57.7446 138.064 58.1156C137.857 58.4867 137.755 58.896 137.755 59.3437ZM150.206 62.7275L145.515 57.9743L145.533 62.5243H144.667V55.9422H144.711L149.394 60.7661L149.376 56.1366H150.233V62.7275H150.206ZM155.197 57.2763C154.979 57.1644 154.741 57.0672 154.482 56.9848C154.223 56.9023 153.972 56.8611 153.731 56.8611C153.384 56.8611 153.106 56.9406 152.9 57.0996C152.7 57.2586 152.6 57.4736 152.6 57.7446C152.6 57.9389 152.665 58.1039 152.794 58.2393C152.93 58.3748 153.101 58.4955 153.307 58.6015C153.519 58.7017 153.742 58.7959 153.978 58.8843C154.243 58.9844 154.499 59.1051 154.747 59.2465C154.994 59.3879 155.197 59.5793 155.356 59.8208C155.522 60.0564 155.604 60.3745 155.604 60.775C155.604 61.1166 155.518 61.4258 155.348 61.7026C155.177 61.9736 154.935 62.1915 154.623 62.3564C154.311 62.5154 153.94 62.5949 153.51 62.5949C153.086 62.5949 152.691 62.5272 152.326 62.3917C151.967 62.2563 151.661 62.1002 151.407 61.9235L151.787 61.2432C151.993 61.4022 152.247 61.5407 152.547 61.6584C152.853 61.7762 153.145 61.8351 153.422 61.8351C153.628 61.8351 153.828 61.7998 154.022 61.7291C154.223 61.6584 154.387 61.5465 154.517 61.3934C154.647 61.2344 154.711 61.0312 154.711 60.7838C154.711 60.5717 154.652 60.3921 154.535 60.2449C154.417 60.0976 154.264 59.9739 154.075 59.8738C153.893 59.7678 153.693 59.6735 153.475 59.5911C153.274 59.5204 153.071 59.4379 152.865 59.3437C152.659 59.2494 152.467 59.1376 152.291 59.008C152.12 58.8725 151.981 58.7076 151.875 58.5132C151.769 58.3188 151.716 58.0832 151.716 57.8064C151.716 57.4707 151.796 57.1791 151.955 56.9317C152.12 56.6785 152.344 56.4812 152.626 56.3398C152.909 56.1925 153.236 56.113 153.607 56.1013C154.014 56.1013 154.373 56.1513 154.685 56.2515C155.003 56.3516 155.283 56.4723 155.524 56.6137L155.197 57.2763ZM156.858 56.1366H161.011V56.9582H157.715V58.9019H160.657V59.7236H157.715V61.6938H161.135V62.5243H156.858V56.1366ZM164.159 56.1366C164.583 56.1366 164.966 56.2132 165.307 56.3663C165.649 56.5136 165.92 56.7374 166.12 57.0378C166.321 57.3322 166.421 57.6916 166.421 58.1156C166.421 58.4808 166.338 58.8342 166.173 59.1758C166.014 59.5175 165.744 59.7766 165.36 59.9533L166.968 62.5243H165.97L164.459 60.1653C164.395 60.1712 164.327 60.1742 164.256 60.1742H163.311V62.5243H162.454V56.1366H164.159ZM164.238 59.3437C164.58 59.3437 164.842 59.2818 165.025 59.1582C165.214 59.0285 165.346 58.8725 165.422 58.6899C165.499 58.5014 165.537 58.3218 165.537 58.151C165.537 57.9802 165.496 57.8035 165.413 57.6209C165.331 57.4383 165.199 57.2822 165.016 57.1526C164.839 57.023 164.601 56.9582 164.3 56.9582H163.311V59.3437H164.238ZM168.336 56.1366L170.174 60.7396L171.95 56.1366H172.957L170.139 62.8158L167.32 56.1366H168.336ZM174.05 56.1366H178.202V56.9582H174.907V58.9019H177.849V59.7236H174.907V61.6938H178.326V62.5243H174.05V56.1366ZM182.264 56.1366H183.121V61.6938H186.373V62.5243H182.264V56.1366ZM187.584 56.1366H188.441V62.5243H187.584V56.1366ZM190.099 56.1366H193.889V56.9582H190.956V58.9903H193.527V59.8119H190.956V62.5243H190.099V56.1366ZM195.125 56.1366H199.277V56.9582H195.982V58.9019H198.924V59.7236H195.982V61.6938H199.401V62.5243H195.125V56.1366ZM200.305 55.8097H201.047V60.8721H200.305V55.8097ZM200.702 62.4889C200.549 62.4889 200.419 62.4448 200.313 62.3564C200.214 62.2681 200.163 62.1532 200.163 62.0118C200.163 61.8822 200.214 61.7704 200.313 61.6761C200.419 61.5819 200.549 61.5348 200.702 61.5348C200.85 61.5348 200.971 61.5819 201.064 61.6761C201.165 61.7704 201.215 61.8822 201.215 62.0118C201.215 62.1532 201.165 62.2681 201.064 62.3564C200.971 62.4448 200.85 62.4889 200.702 62.4889Z" fill="#1182C7"/>
</g>
<defs>
<clipPath id="clip0_60_15305">
<rect width="201.845" height="70" fill="white"/>
</clipPath>
</defs>
</svg>
