<svg width="127" height="44" viewBox="0 0 127 44" fill="none" xmlns="http://www.w3.org/2000/svg">
<g clip-path="url(#clip0_64_15380)">
<path d="M18.5182 7.6466C9.45334 13.4862 6.64674 23.3798 6.64674 23.3798C6.64674 10.8377 20.573 0 20.573 0C-1.0084 10.2524 -7.26239 37.1309 9.79082 43.1157C11.3405 43.66 12.9823 43.8936 14.6223 43.8031C16.2623 43.7129 17.8684 43.3003 19.3489 42.5889C20.8294 41.8776 22.1553 40.8816 23.2507 39.6578C24.3462 38.434 25.1898 37.0063 25.7333 35.4563C29.5566 24.5631 18.4669 17.9247 18.5182 7.6466Z" fill="white"/>
<path d="M29.7148 28.2112L31.3552 27.8011V15.7716L29.7148 15.3615V14.9514H32.1754C33.2508 14.9514 34.0983 15.2977 34.718 15.9903C34.955 16.2637 35.1555 16.6008 35.3195 17.0018C35.5747 16.528 35.8754 16.1179 36.2217 15.7716C37.0419 14.9514 38.0626 14.5413 39.2838 14.5413C40.3044 14.5413 41.2158 14.76 42.0178 15.1974C42.838 15.6166 43.4757 16.1726 43.9315 16.8651C44.3873 17.5577 44.615 18.2868 44.615 19.0523V27.8011L46.2554 28.2112V28.6213H42.7013C41.0609 28.6213 40.2407 27.8011 40.2407 26.1607V19.0523C40.2407 17.9041 40.031 17.0292 39.6119 16.4277C39.2109 15.808 38.737 15.4982 38.1902 15.4982C37.4976 15.4982 36.8779 15.8627 36.3311 16.5917C36.0941 16.9016 35.8936 17.2661 35.7296 17.6853V27.8011L37.37 28.2112V28.6213H29.7148V28.2112ZM55.2788 29.0314C52.9456 29.0314 51.1322 28.3934 49.8382 27.1176C48.5439 25.8235 47.8971 24.0464 47.8971 21.7863C47.8971 20.31 48.1795 19.025 48.7446 17.9314C49.3094 16.8378 50.0933 15.9994 51.0959 15.4161C52.1164 14.8329 53.283 14.5413 54.5954 14.5413C55.9077 14.5413 57.0559 14.7873 58.0402 15.2794C59.0423 15.7716 59.8079 16.4368 60.3367 17.2752C60.8835 18.0954 61.1569 19.0067 61.1569 20.0092C61.1569 20.4649 61.1112 20.8568 61.0202 21.1848L60.8835 21.6496C60.0996 21.8137 59.2521 21.9503 58.3409 22.0597C56.4271 22.3331 54.495 22.4698 52.5449 22.4698C52.5449 24.5841 52.8362 26.0969 53.4197 27.0082C54.0028 27.9013 54.8047 28.3479 55.8256 28.3479C56.5365 28.3479 57.1926 28.1838 57.7941 27.8557C58.4135 27.5094 58.8967 27.0629 59.2431 26.5161C59.6075 25.9511 59.7899 25.3769 59.7899 24.7937H60.473C60.473 25.5228 60.2547 26.2154 59.8172 26.8715C59.3798 27.5277 58.7689 28.0562 57.9855 28.4572C57.2016 28.84 56.2994 29.0314 55.2788 29.0314ZM52.5449 21.7863C53.7111 21.7863 54.659 21.7407 55.3882 21.6496C55.6979 21.6314 56.026 21.5858 56.3724 21.5129C56.3904 21.4218 56.4361 21.2213 56.5091 20.9114C56.6001 20.4558 56.6458 19.9728 56.6458 19.4624C56.6458 17.9496 56.4451 16.8469 56.0444 16.1543C55.6432 15.4435 55.1601 15.0881 54.5954 15.0881C53.2284 15.0881 52.5449 17.3208 52.5449 21.7863ZM70.5772 29.0314C68.2443 29.0314 66.4305 28.3934 65.1366 27.1176C63.8426 25.8235 63.1954 24.0464 63.1954 21.7863C63.1954 20.31 63.4778 19.025 64.043 17.9314C64.6081 16.8378 65.3916 15.9994 66.3942 15.4161C67.4147 14.8329 68.5814 14.5413 69.8937 14.5413C71.206 14.5413 72.3543 14.7873 73.3385 15.2794C74.3411 15.7716 75.1066 16.4368 75.635 17.2752C76.1818 18.0954 76.4552 19.0067 76.4552 20.0092C76.4552 20.4649 76.4095 20.8568 76.3185 21.1848L76.1818 21.6496C75.398 21.8137 74.5504 21.9503 73.6392 22.0597C71.7254 22.3331 69.7933 22.4698 67.8432 22.4698C67.8432 24.5841 68.135 26.0969 68.7181 27.0082C69.3012 27.9013 70.1034 28.3479 71.124 28.3479C71.8348 28.3479 72.491 28.1838 73.0924 27.8557C73.7123 27.5094 74.195 27.0629 74.5414 26.5161C74.9058 25.9511 75.0882 25.3769 75.0882 24.7937H75.7717C75.7717 25.5228 75.553 26.2154 75.1156 26.8715C74.6781 27.5277 74.0677 28.0562 73.2838 28.4572C72.4999 28.84 71.5977 29.0314 70.5772 29.0314ZM67.8432 21.7863C69.0098 21.7863 69.9573 21.7407 70.6865 21.6496C70.9962 21.6314 71.3243 21.5858 71.6708 21.5129C71.6891 21.4218 71.7344 21.2213 71.8075 20.9114C71.8985 20.4558 71.9442 19.9728 71.9442 19.4624C71.9442 17.9496 71.7438 16.8469 71.3427 16.1543C70.9416 15.4435 70.4588 15.0881 69.8937 15.0881C68.5267 15.0881 67.8432 17.3208 67.8432 21.7863ZM78.4942 28.2112L80.1346 27.8011V15.7716L78.4942 15.3615V14.9514H80.9548C82.03 14.9514 82.8775 15.2977 83.4974 15.9903C83.734 16.2637 83.9348 16.6008 84.0988 17.0018C84.3722 16.6008 84.7093 16.2363 85.1104 15.9083C86.0216 15.1792 87.0421 14.8147 88.1725 14.8147C89.1383 14.8147 89.8581 15.0425 90.3323 15.4982C90.8244 15.9356 91.0705 16.5735 91.0705 17.4119C91.0705 18.0317 90.8791 18.5329 90.4964 18.9156C90.1315 19.2801 89.6394 19.4624 89.02 19.4624C88.7646 19.4624 88.5095 19.4442 88.2545 19.4077L87.9264 19.3257V15.4982C86.9969 15.4982 86.1493 15.8627 85.3838 16.5917C85.019 16.9563 84.7277 17.3208 84.5089 17.6853V27.8011L86.1493 28.2112V28.6213H78.4942V28.2112ZM92.1607 34.4993C90.7937 34.4993 89.7911 34.2715 89.1533 33.8158C88.5155 33.3601 88.1964 32.7222 88.1964 31.902C88.1964 31.2823 88.3878 30.7811 88.7705 30.3984C89.1349 30.0338 89.627 29.8516 90.2469 29.8516C90.3926 29.8516 90.5387 29.8607 90.6843 29.8789C90.83 29.9153 90.9304 29.9336 90.9851 29.9336L91.3405 29.9883V33.8158L91.5045 33.8978C91.6869 33.9343 91.8142 33.9525 91.8873 33.9525C92.4524 33.9525 92.9078 33.6062 93.2543 32.9136C93.6187 32.2392 93.8011 31.0818 93.8011 29.4415V15.7716L92.1607 15.3615V14.9514H95.7148C97.3552 14.9514 98.1754 15.7716 98.1754 17.4119V29.4415C98.1754 30.4074 97.9383 31.2732 97.4646 32.0387C96.9908 32.8043 96.298 33.4057 95.3868 33.8432C94.4756 34.2806 93.3999 34.4993 92.1607 34.4993ZM95.7148 13.311C95.168 13.311 94.7122 13.1287 94.3479 12.7642C93.9835 12.3997 93.8011 11.944 93.8011 11.3972C93.8011 10.8504 93.9835 10.3947 94.3479 10.0302C94.7122 9.66568 95.168 9.4834 95.7148 9.4834C96.2616 9.4834 96.7174 9.66568 97.0818 10.0302C97.4462 10.3947 97.6286 10.8504 97.6286 11.3972C97.6286 11.944 97.4462 12.3997 97.0818 12.7642C96.7174 13.1287 96.2616 13.311 95.7148 13.311ZM106.653 29.0314C105.031 29.0314 103.782 28.685 102.907 27.9924C102.032 27.2999 101.595 26.4158 101.595 25.3405C101.595 24.6297 101.75 23.9279 102.06 23.2353C102.188 22.9072 102.352 22.6065 102.552 22.3331C103.299 22.1508 104.11 21.9868 104.985 21.841C106.954 21.5129 108.694 21.3124 110.207 21.2395V20.4193C110.207 18.3962 109.961 17.0018 109.469 16.2363C108.977 15.4708 108.22 15.0881 107.2 15.0881C106.817 15.0881 106.489 15.1336 106.215 15.2248L105.833 15.3615V19.4624L105.477 19.5444C105.186 19.5809 104.939 19.5991 104.739 19.5991C104.119 19.5991 103.618 19.4168 103.235 19.0523C102.871 18.6696 102.689 18.1684 102.689 17.5486C102.689 16.7102 103.108 15.9994 103.946 15.4161C104.803 14.8329 106.07 14.5413 107.746 14.5413C109.168 14.5413 110.389 14.7964 111.41 15.3068C112.449 15.7989 113.233 16.4915 113.761 17.3846C114.308 18.2595 114.581 19.271 114.581 20.4193V27.8011L116.222 28.2112V28.6213H113.761C112.668 28.6213 111.82 28.2841 111.219 27.6097C110.964 27.3363 110.763 26.99 110.617 26.5708C110.362 27.0265 110.061 27.4366 109.715 27.8011C108.895 28.6213 107.874 29.0314 106.653 29.0314ZM107.746 28.0745C108.421 28.0745 109.031 27.7099 109.578 26.9809C109.779 26.7075 109.988 26.343 110.207 25.8873V21.923C109.369 21.923 108.567 21.9686 107.801 22.0597C107.236 22.1326 106.853 22.1782 106.653 22.1964C106.562 22.3969 106.47 22.6703 106.38 23.0166C106.197 23.7092 106.106 24.3927 106.106 25.0671C106.106 26.0878 106.261 26.8442 106.571 27.3363C106.881 27.8284 107.273 28.0745 107.746 28.0745ZM117.875 28.2112L119.515 27.8011V10.3036L117.875 9.8935V9.4834H121.429C123.07 9.4834 123.89 10.3036 123.89 11.944V27.8011L125.53 28.2112V28.6213H117.875V28.2112Z" fill="white"/>
<path d="M32.1477 39.001C32.0811 39.0454 31.9904 39.0954 31.8756 39.151C31.7608 39.2065 31.6257 39.2546 31.4702 39.2953C31.3184 39.3324 31.1518 39.349 30.9704 39.3453C30.6557 39.3416 30.3744 39.2861 30.1263 39.1787C29.8782 39.0714 29.6654 38.9251 29.4877 38.74C29.3137 38.5512 29.1804 38.3364 29.0878 38.0958C28.9952 37.8552 28.949 37.5978 28.949 37.3239C28.949 37.024 28.9971 36.7482 29.0934 36.4964C29.1933 36.241 29.3322 36.0207 29.5099 35.8356C29.6876 35.6468 29.8968 35.5005 30.1374 35.3969C30.3818 35.2932 30.6483 35.2414 30.9371 35.2414C31.1777 35.2414 31.3962 35.2747 31.5924 35.3413C31.7886 35.4043 31.9571 35.4783 32.0978 35.5635L31.8812 36.0688C31.7701 35.9948 31.635 35.9244 31.4758 35.8578C31.3166 35.7912 31.1426 35.7578 30.9538 35.7578C30.7575 35.7578 30.5724 35.7985 30.3984 35.88C30.2244 35.9578 30.0708 36.067 29.9375 36.2077C29.8042 36.3447 29.6987 36.5075 29.6209 36.6964C29.5469 36.8815 29.5099 37.0814 29.5099 37.2961C29.5099 37.5849 29.5691 37.8459 29.6876 38.0792C29.8098 38.3087 29.9801 38.4901 30.1985 38.6234C30.4206 38.7567 30.6798 38.8233 30.976 38.8233C31.1833 38.8233 31.3647 38.7937 31.5202 38.7345C31.6794 38.6715 31.8108 38.5993 31.9145 38.5179L32.1477 39.001ZM32.6938 37.2961C32.6938 37.0185 32.7457 36.7556 32.8493 36.5075C32.9567 36.2595 33.1048 36.0411 33.2936 35.8522C33.4824 35.6634 33.699 35.5153 33.9434 35.408C34.1914 35.2969 34.4561 35.2414 34.7375 35.2414C35.0188 35.2414 35.2836 35.2969 35.5316 35.408C35.7834 35.5153 36.0037 35.6634 36.1925 35.8522C36.3813 36.0411 36.5294 36.2595 36.6368 36.5075C36.7441 36.7556 36.7978 37.0185 36.7978 37.2961C36.7978 37.5812 36.7441 37.8478 36.6368 38.0958C36.5294 38.3402 36.3813 38.5567 36.1925 38.7456C36.0037 38.9344 35.7834 39.0825 35.5316 39.1898C35.2836 39.2935 35.0188 39.3453 34.7375 39.3453C34.4561 39.3453 34.1914 39.2935 33.9434 39.1898C33.699 39.0862 33.4824 38.9418 33.2936 38.7567C33.1048 38.5716 32.9567 38.355 32.8493 38.1069C32.7457 37.8552 32.6938 37.5849 32.6938 37.2961ZM33.2492 37.3017C33.2492 37.5127 33.2881 37.7108 33.3658 37.8959C33.4436 38.0773 33.5509 38.2384 33.6879 38.379C33.8249 38.5197 33.9841 38.6289 34.1655 38.7067C34.3469 38.7844 34.5431 38.8233 34.7542 38.8233C35.0318 38.8233 35.2817 38.7567 35.5039 38.6234C35.7297 38.4864 35.9093 38.3031 36.0425 38.0736C36.1758 37.8404 36.2425 37.5812 36.2425 37.2961C36.2425 37.0851 36.2036 36.887 36.1258 36.7019C36.0481 36.5131 35.9407 36.3483 35.8037 36.2077C35.6667 36.067 35.5075 35.9578 35.3262 35.88C35.1447 35.7985 34.9504 35.7578 34.743 35.7578C34.4617 35.7578 34.208 35.8282 33.9822 35.9689C33.7564 36.1095 33.5768 36.2965 33.4436 36.5298C33.3139 36.763 33.2492 37.0203 33.2492 37.3017ZM41.0763 39.4286L38.1274 36.4409L38.1385 39.3009H37.5943V35.1636H37.6221L40.5654 38.1958L40.5543 35.2858H41.0929V39.4286H41.0763ZM44.2131 36.0022C44.0764 35.9318 43.9265 35.8707 43.7633 35.8189C43.6005 35.7671 43.4433 35.7412 43.2913 35.7412C43.073 35.7412 42.8991 35.7912 42.7692 35.8911C42.6436 35.9911 42.5806 36.1262 42.5806 36.2965C42.5806 36.4187 42.6214 36.5224 42.7028 36.6075C42.788 36.6926 42.8953 36.7686 43.0247 36.8352C43.158 36.8981 43.299 36.9574 43.4468 37.0129C43.6134 37.0758 43.7744 37.1517 43.9299 37.2406C44.0854 37.3294 44.2131 37.4498 44.3131 37.6016C44.4169 37.7497 44.4686 37.9496 44.4686 38.2013C44.4686 38.4161 44.4152 38.6104 44.3075 38.7844C44.2003 38.9548 44.0487 39.0917 43.8522 39.1954C43.6561 39.2953 43.4228 39.3453 43.1524 39.3453C42.8859 39.3453 42.638 39.3027 42.4084 39.2176C42.1826 39.1325 41.9901 39.0343 41.8309 38.9233L42.0697 38.4957C42.1993 38.5956 42.3585 38.6826 42.5473 38.7567C42.7398 38.8307 42.923 38.8677 43.0969 38.8677C43.2268 38.8677 43.3524 38.8455 43.4745 38.8011C43.6005 38.7567 43.7044 38.6863 43.7855 38.5901C43.8671 38.4901 43.9077 38.3624 43.9077 38.2069C43.9077 38.0736 43.871 37.9607 43.7966 37.8681C43.7227 37.7756 43.6266 37.6978 43.5078 37.6349C43.3934 37.5682 43.2673 37.509 43.1302 37.4572C43.0046 37.4127 42.8769 37.3609 42.747 37.3017C42.6176 37.2424 42.4973 37.1721 42.3862 37.0906C42.2789 37.0055 42.1919 36.9018 42.1252 36.7797C42.0586 36.6575 42.0253 36.5094 42.0253 36.3354C42.0253 36.1244 42.0752 35.9411 42.1752 35.7856C42.2789 35.6264 42.4196 35.5024 42.5973 35.4135C42.7748 35.321 42.9803 35.271 43.2135 35.2636C43.469 35.2636 43.695 35.2951 43.891 35.358C44.091 35.4209 44.267 35.4968 44.4186 35.5857L44.2131 36.0022ZM45.2576 35.2858H47.8677V35.8023H45.7963V37.024H47.6456V37.5405H45.7963V38.7789H47.9454V39.3009H45.2576V35.2858ZM49.8464 35.2858C50.113 35.2858 50.3535 35.3339 50.5684 35.4302C50.7832 35.5228 50.9532 35.6634 51.0793 35.8522C51.2053 36.0373 51.2681 36.2632 51.2681 36.5298C51.2681 36.7593 51.2164 36.9814 51.1126 37.1962C51.0126 37.4109 50.8422 37.5738 50.6017 37.6849L51.6124 39.3009H50.9849L50.0352 37.8181C49.9946 37.8219 49.9519 37.8237 49.9075 37.8237H49.3133V39.3009H48.7746V35.2858H49.8464ZM49.8964 37.3017C50.1113 37.3017 50.2757 37.2628 50.3906 37.1851C50.509 37.1036 50.5923 37.0055 50.6405 36.8907C50.6888 36.7723 50.7127 36.6593 50.7127 36.552C50.7127 36.4446 50.6867 36.3336 50.635 36.2188C50.5833 36.104 50.5 36.0059 50.3851 35.9244C50.274 35.843 50.1241 35.8023 49.9353 35.8023H49.3133V37.3017H49.8964ZM52.4719 35.2858L53.627 38.1791L54.7432 35.2858H55.3763L53.6048 39.4842L51.8332 35.2858H52.4719ZM56.0637 35.2858H58.6738V35.8023H56.6023V37.024H58.4516V37.5405H56.6023V38.7789H58.7515V39.3009H56.0637V35.2858ZM60.8767 35.3025H61.5043L62.5372 38.2235L63.2369 36.4076L62.8093 35.3025H63.3425L64.4587 38.1625L65.4472 35.3025H66.0247L64.442 39.4786L63.5035 37.0851L62.4761 39.4842L60.8767 35.3025ZM65.8082 39.3009L67.563 35.1192H67.5964L69.3512 39.3009H68.7293L68.3127 38.2458H66.7689L66.3413 39.3009H65.8082ZM66.9577 37.7793H68.1295L67.5575 36.3187L66.9577 37.7793ZM69.3875 35.2858H72.0532V35.8023H70.9758V39.3009H70.4371V35.8023H69.3875V35.2858ZM72.8029 35.2858H75.413V35.8023H73.3416V37.024H75.1908V37.5405H73.3416V38.7789H75.4907V39.3009H72.8029V35.2858ZM77.3921 35.2858C77.6587 35.2858 77.8992 35.3339 78.1141 35.4302C78.3285 35.5228 78.499 35.6634 78.625 35.8522C78.7506 36.0373 78.8138 36.2632 78.8138 36.5298C78.8138 36.7593 78.7617 36.9814 78.6583 37.1962C78.5583 37.4109 78.3879 37.5738 78.1474 37.6849L79.1581 39.3009H78.5306L77.5809 37.8181C77.5399 37.8219 77.4976 37.8237 77.4532 37.8237H76.859V39.3009H76.3203V35.2858H77.3921ZM77.4421 37.3017C77.6565 37.3017 77.8214 37.2628 77.9364 37.1851C78.0547 37.1036 78.138 37.0055 78.1863 36.8907C78.2341 36.7723 78.2584 36.6593 78.2584 36.552C78.2584 36.4446 78.2324 36.3336 78.1807 36.2188C78.1286 36.104 78.0453 36.0059 77.9308 35.9244C77.8197 35.843 77.6698 35.8023 77.481 35.8023H76.859V37.3017H77.4421ZM80.2197 38.8122C80.1342 39.0084 80.0509 39.2028 79.9697 39.3953C79.892 39.5878 79.8143 39.7803 79.7365 39.9729H79.3089C79.3828 39.7803 79.455 39.5878 79.5255 39.3953C79.5994 39.2028 79.6733 39.0084 79.7476 38.8122H80.2197ZM85.4868 39.001C85.4202 39.0454 85.3296 39.0954 85.2147 39.151C85.1002 39.2065 84.9648 39.2546 84.8093 39.2953C84.6577 39.3324 84.4911 39.349 84.3095 39.3453C83.9951 39.3416 83.7136 39.2861 83.4654 39.1787C83.2176 39.0714 83.0045 38.9251 82.8268 38.74C82.6529 38.5512 82.5196 38.3364 82.4269 38.0958C82.3346 37.8552 82.2881 37.5978 82.2881 37.3239C82.2881 37.024 82.3364 36.7482 82.4325 36.4964C82.5324 36.241 82.6713 36.0207 82.849 35.8356C83.0267 35.6468 83.236 35.5005 83.4765 35.3969C83.7209 35.2932 83.9874 35.2414 84.2762 35.2414C84.5171 35.2414 84.7354 35.2747 84.9315 35.3413C85.128 35.4043 85.2963 35.4783 85.4369 35.5635L85.2203 36.0688C85.1092 35.9948 84.9742 35.9244 84.8149 35.8578C84.656 35.7912 84.4817 35.7578 84.2929 35.7578C84.0968 35.7578 83.9118 35.7985 83.7375 35.88C83.5637 35.9578 83.4099 36.067 83.2766 36.2077C83.1433 36.3447 83.0378 36.5075 82.96 36.6964C82.8861 36.8815 82.849 37.0814 82.849 37.2961C82.849 37.5849 82.9084 37.8459 83.0267 38.0792C83.1489 38.3087 83.3193 38.4901 83.5376 38.6234C83.7597 38.7567 84.019 38.8233 84.3151 38.8233C84.5227 38.8233 84.7038 38.7937 84.8593 38.7345C85.0186 38.6715 85.1502 38.5993 85.2536 38.5179L85.4868 39.001ZM86.0332 37.2961C86.0332 37.0185 86.0849 36.7556 86.1887 36.5075C86.2959 36.2595 86.4442 36.0411 86.633 35.8522C86.8218 35.6634 87.0384 35.5153 87.2827 35.408C87.5305 35.2969 87.7953 35.2414 88.0769 35.2414C88.3579 35.2414 88.6228 35.2969 88.871 35.408C89.1226 35.5153 89.343 35.6634 89.5318 35.8522C89.7207 36.0411 89.8685 36.2595 89.9761 36.5075C90.0833 36.7556 90.1372 37.0185 90.1372 37.2961C90.1372 37.5812 90.0833 37.8478 89.9761 38.0958C89.8685 38.3402 89.7207 38.5567 89.5318 38.7456C89.343 38.9344 89.1226 39.0825 88.871 39.1898C88.6228 39.2935 88.3579 39.3453 88.0769 39.3453C87.7953 39.3453 87.5305 39.2935 87.2827 39.1898C87.0384 39.0862 86.8218 38.9418 86.633 38.7567C86.4442 38.5716 86.2959 38.355 86.1887 38.1069C86.0849 37.8552 86.0332 37.5849 86.0332 37.2961ZM86.5885 37.3017C86.5885 37.5127 86.6274 37.7108 86.7052 37.8959C86.7829 38.0773 86.8901 38.2384 87.0273 38.379C87.164 38.5197 87.3233 38.6289 87.5049 38.7067C87.686 38.7844 87.8825 38.8233 88.0935 38.8233C88.3712 38.8233 88.6211 38.7567 88.8432 38.6234C89.0688 38.4864 89.2486 38.3031 89.3819 38.0736C89.5152 37.8404 89.5818 37.5812 89.5818 37.2961C89.5818 37.0851 89.543 36.887 89.4652 36.7019C89.3875 36.5131 89.2798 36.3483 89.1431 36.2077C89.006 36.067 88.8466 35.9578 88.6655 35.88C88.484 35.7985 88.2896 35.7578 88.0824 35.7578C87.8009 35.7578 87.5471 35.8282 87.3216 35.9689C87.0956 36.1095 86.9162 36.2965 86.7829 36.5298C86.6531 36.763 86.5885 37.0203 86.5885 37.3017ZM94.4154 39.4286L91.4666 36.4409L91.4777 39.3009H90.9334V35.1636H90.9612L93.9045 38.1958L93.8934 35.2858H94.4321V39.4286H94.4154ZM97.5527 36.0022C97.4155 35.9318 97.2656 35.8707 97.1028 35.8189C96.9401 35.7671 96.7824 35.7412 96.6308 35.7412C96.4125 35.7412 96.2382 35.7912 96.1088 35.8911C95.9828 35.9911 95.92 36.1262 95.92 36.2965C95.92 36.4187 95.9605 36.5224 96.0421 36.6075C96.1272 36.6926 96.2348 36.7686 96.3642 36.8352C96.4975 36.8981 96.6381 36.9574 96.7863 37.0129C96.9529 37.0758 97.1139 37.1517 97.2694 37.2406C97.4249 37.3294 97.5527 37.4498 97.6526 37.6016C97.7564 37.7497 97.8081 37.9496 97.8081 38.2013C97.8081 38.4161 97.7543 38.6104 97.6471 38.7844C97.5398 38.9548 97.3878 39.0917 97.1917 39.1954C96.9956 39.2953 96.7624 39.3453 96.492 39.3453C96.2254 39.3453 95.9772 39.3027 95.7478 39.2176C95.5218 39.1325 95.3296 39.0343 95.1703 38.9233L95.409 38.4957C95.5385 38.5956 95.6978 38.6826 95.8867 38.7567C96.0793 38.8307 96.2626 38.8677 96.4364 38.8677C96.5659 38.8677 96.6919 38.8455 96.8141 38.8011C96.9401 38.7567 97.0435 38.6863 97.125 38.5901C97.2066 38.4901 97.2472 38.3624 97.2472 38.2069C97.2472 38.0736 97.2101 37.9607 97.1362 37.8681C97.0623 37.7756 96.9657 37.6978 96.8474 37.6349C96.7325 37.5682 96.6069 37.509 96.4697 37.4572C96.3437 37.4127 96.216 37.3609 96.0866 37.3017C95.9571 37.2424 95.8367 37.1721 95.7256 37.0906C95.6184 37.0055 95.5312 36.9018 95.4646 36.7797C95.3979 36.6575 95.3646 36.5094 95.3646 36.3354C95.3646 36.1244 95.4146 35.9411 95.5146 35.7856C95.6184 35.6264 95.7589 35.5024 95.9366 35.4135C96.1143 35.321 96.3198 35.271 96.5531 35.2636C96.8085 35.2636 97.0345 35.2951 97.2306 35.358C97.4305 35.4209 97.6065 35.4968 97.7581 35.5857L97.5527 36.0022ZM98.5967 35.2858H101.207V35.8023H99.1354V37.024H100.985V37.5405H99.1354V38.7789H101.285V39.3009H98.5967V35.2858ZM103.186 35.2858C103.452 35.2858 103.693 35.3339 103.907 35.4302C104.122 35.5228 104.293 35.6634 104.418 35.8522C104.544 36.0373 104.607 36.2632 104.607 36.5298C104.607 36.7593 104.555 36.9814 104.452 37.1962C104.352 37.4109 104.182 37.5738 103.941 37.6849L104.951 39.3009H104.324L103.374 37.8181C103.334 37.8219 103.291 37.8237 103.247 37.8237H102.652V39.3009H102.114V35.2858H103.186ZM103.235 37.3017C103.45 37.3017 103.615 37.2628 103.73 37.1851C103.849 37.1036 103.932 37.0055 103.98 36.8907C104.028 36.7723 104.052 36.6593 104.052 36.552C104.052 36.4446 104.026 36.3336 103.974 36.2188C103.922 36.104 103.839 36.0059 103.724 35.9244C103.613 35.843 103.463 35.8023 103.274 35.8023H102.652V37.3017H103.235ZM105.811 35.2858L106.967 38.1791L108.083 35.2858H108.716L106.944 39.4842L105.173 35.2858H105.811ZM109.403 35.2858H112.013V35.8023H109.941V37.024H111.791V37.5405H109.941V38.7789H112.091V39.3009H109.403V35.2858ZM114.566 35.2858H115.105V38.7789H117.148V39.3009H114.566V35.2858ZM117.91 35.2858H118.448V39.3009H117.91V35.2858ZM119.491 35.2858H121.873V35.8023H120.029V37.0795H121.645V37.596H120.029V39.3009H119.491V35.2858ZM122.65 35.2858H125.26V35.8023H123.188V37.024H125.038V37.5405H123.188V38.7789H125.338V39.3009H122.65V35.2858ZM125.906 35.0803H126.372V38.2624H125.906V35.0803ZM126.156 39.2787C126.06 39.2787 125.978 39.2509 125.911 39.1954C125.849 39.1399 125.817 39.0677 125.817 38.9788C125.817 38.8973 125.849 38.827 125.911 38.7678C125.978 38.7085 126.06 38.6789 126.156 38.6789C126.248 38.6789 126.324 38.7085 126.383 38.7678C126.447 38.827 126.478 38.8973 126.478 38.9788C126.478 39.0677 126.447 39.1399 126.383 39.1954C126.324 39.2509 126.248 39.2787 126.156 39.2787Z" fill="white"/>
</g>
<defs>
<clipPath id="clip0_64_15380">
<rect width="126.874" height="44" fill="white"/>
</clipPath>
</defs>
</svg>
