<svg width="467" height="140" viewBox="0 0 467 140" fill="none" xmlns="http://www.w3.org/2000/svg">
<rect width="467" height="140" rx="4" fill="url(#paint0_linear_75_5)"/>
<path d="M145.545 60.204H148.485L150.949 66.952L153.441 60.204H156.381L152.965 69.052L155.933 76.36L162.121 60.12H165.565L157.417 80H154.701L150.977 71.096L147.225 80H144.481L136.361 60.12H139.777L145.993 76.36L148.961 69.052L145.545 60.204ZM165.457 75.716C165.457 74.7827 165.718 73.9707 166.241 73.28C166.782 72.5707 167.519 72.0293 168.453 71.656C169.386 71.264 170.469 71.068 171.701 71.068C172.354 71.068 173.017 71.1147 173.689 71.208C174.379 71.3013 174.986 71.4507 175.509 71.656V70.732C175.509 69.7053 175.201 68.9027 174.585 68.324C173.969 67.7453 173.082 67.456 171.925 67.456C171.103 67.456 170.329 67.6053 169.601 67.904C168.873 68.184 168.098 68.5853 167.277 69.108L166.241 67.036C167.211 66.3827 168.182 65.8973 169.153 65.58C170.142 65.2627 171.178 65.104 172.261 65.104C174.221 65.104 175.761 65.6267 176.881 66.672C178.019 67.6987 178.589 69.164 178.589 71.068V76.528C178.589 76.8827 178.645 77.1347 178.757 77.284C178.887 77.4333 179.102 77.5173 179.401 77.536V80C179.121 80.056 178.869 80.0933 178.645 80.112C178.421 80.1307 178.234 80.14 178.085 80.14C177.431 80.14 176.937 79.9813 176.601 79.664C176.265 79.3467 176.069 78.9733 176.013 78.544L175.929 77.704C175.294 78.5253 174.482 79.16 173.493 79.608C172.503 80.056 171.505 80.28 170.497 80.28C169.526 80.28 168.658 80.084 167.893 79.692C167.127 79.2813 166.53 78.7307 166.101 78.04C165.671 77.3493 165.457 76.5747 165.457 75.716ZM174.781 76.612C175.005 76.3693 175.182 76.1267 175.313 75.884C175.443 75.6413 175.509 75.4267 175.509 75.24V73.56C174.986 73.3547 174.435 73.2053 173.857 73.112C173.278 73 172.709 72.944 172.149 72.944C171.029 72.944 170.114 73.168 169.405 73.616C168.714 74.064 168.369 74.68 168.369 75.464C168.369 75.8933 168.481 76.304 168.705 76.696C168.947 77.088 169.283 77.4053 169.713 77.648C170.161 77.8907 170.711 78.012 171.365 78.012C172.037 78.012 172.681 77.8813 173.297 77.62C173.913 77.3587 174.407 77.0227 174.781 76.612ZM190.924 79.244C190.663 79.3747 190.336 79.5147 189.944 79.664C189.552 79.8133 189.104 79.944 188.6 80.056C188.115 80.168 187.611 80.224 187.088 80.224C186.453 80.224 185.865 80.112 185.324 79.888C184.783 79.664 184.344 79.3093 184.008 78.824C183.691 78.32 183.532 77.676 183.532 76.892V67.736H181.6V65.356H183.532V60.54H186.612V65.356H189.804V67.736H186.612V75.912C186.649 76.416 186.808 76.7893 187.088 77.032C187.387 77.2747 187.751 77.396 188.18 77.396C188.609 77.396 189.02 77.3213 189.412 77.172C189.804 77.0227 190.093 76.9013 190.28 76.808L190.924 79.244ZM200.062 80.28C198.923 80.28 197.887 80.084 196.954 79.692C196.039 79.2813 195.246 78.7307 194.574 78.04C193.902 77.3307 193.379 76.528 193.006 75.632C192.651 74.7173 192.474 73.7467 192.474 72.72C192.474 71.3387 192.791 70.0787 193.426 68.94C194.06 67.7827 194.947 66.8587 196.086 66.168C197.224 65.4587 198.559 65.104 200.09 65.104C201.62 65.104 202.936 65.4587 204.038 66.168C205.158 66.8587 206.026 67.7733 206.642 68.912C207.258 70.0507 207.566 71.2733 207.566 72.58C207.566 72.804 207.556 73.0187 207.538 73.224C207.519 73.4107 207.5 73.5693 207.482 73.7H195.75C195.806 74.5587 196.039 75.3147 196.45 75.968C196.879 76.6027 197.42 77.1067 198.074 77.48C198.727 77.8347 199.427 78.012 200.174 78.012C200.995 78.012 201.77 77.8067 202.498 77.396C203.244 76.9853 203.748 76.444 204.01 75.772L206.642 76.528C206.324 77.2373 205.839 77.8813 205.186 78.46C204.551 79.02 203.795 79.468 202.918 79.804C202.04 80.1213 201.088 80.28 200.062 80.28ZM195.666 71.656H204.514C204.458 70.816 204.215 70.0787 203.786 69.444C203.375 68.7907 202.843 68.2867 202.19 67.932C201.555 67.5587 200.846 67.372 200.062 67.372C199.296 67.372 198.587 67.5587 197.934 67.932C197.299 68.2867 196.776 68.7907 196.366 69.444C195.955 70.0787 195.722 70.816 195.666 71.656ZM218.87 68.016C217.675 68.0347 216.611 68.3053 215.678 68.828C214.763 69.3507 214.11 70.088 213.718 71.04V80H210.638V65.356H213.494V68.632C213.998 67.624 214.661 66.8213 215.482 66.224C216.303 65.608 217.171 65.272 218.086 65.216C218.273 65.216 218.422 65.216 218.534 65.216C218.665 65.216 218.777 65.2253 218.87 65.244V68.016ZM242.652 62.892H236.044V80H232.88V62.892H226.244V60.12H242.652V62.892ZM241.77 75.716C241.77 74.7827 242.031 73.9707 242.554 73.28C243.095 72.5707 243.832 72.0293 244.766 71.656C245.699 71.264 246.782 71.068 248.014 71.068C248.667 71.068 249.33 71.1147 250.002 71.208C250.692 71.3013 251.299 71.4507 251.822 71.656V70.732C251.822 69.7053 251.514 68.9027 250.898 68.324C250.282 67.7453 249.395 67.456 248.238 67.456C247.416 67.456 246.642 67.6053 245.914 67.904C245.186 68.184 244.411 68.5853 243.59 69.108L242.554 67.036C243.524 66.3827 244.495 65.8973 245.466 65.58C246.455 65.2627 247.491 65.104 248.574 65.104C250.534 65.104 252.074 65.6267 253.194 66.672C254.332 67.6987 254.902 69.164 254.902 71.068V76.528C254.902 76.8827 254.958 77.1347 255.07 77.284C255.2 77.4333 255.415 77.5173 255.714 77.536V80C255.434 80.056 255.182 80.0933 254.958 80.112C254.734 80.1307 254.547 80.14 254.398 80.14C253.744 80.14 253.25 79.9813 252.914 79.664C252.578 79.3467 252.382 78.9733 252.326 78.544L252.242 77.704C251.607 78.5253 250.795 79.16 249.806 79.608C248.816 80.056 247.818 80.28 246.81 80.28C245.839 80.28 244.971 80.084 244.206 79.692C243.44 79.2813 242.843 78.7307 242.414 78.04C241.984 77.3493 241.77 76.5747 241.77 75.716ZM251.094 76.612C251.318 76.3693 251.495 76.1267 251.626 75.884C251.756 75.6413 251.822 75.4267 251.822 75.24V73.56C251.299 73.3547 250.748 73.2053 250.17 73.112C249.591 73 249.022 72.944 248.462 72.944C247.342 72.944 246.427 73.168 245.718 73.616C245.027 74.064 244.682 74.68 244.682 75.464C244.682 75.8933 244.794 76.304 245.018 76.696C245.26 77.088 245.596 77.4053 246.026 77.648C246.474 77.8907 247.024 78.012 247.678 78.012C248.35 78.012 248.994 77.8813 249.61 77.62C250.226 77.3587 250.72 77.0227 251.094 76.612ZM272.33 80H269.25V71.796C269.25 70.4333 269.026 69.4347 268.578 68.8C268.149 68.1653 267.505 67.848 266.646 67.848C266.049 67.848 265.452 67.9973 264.854 68.296C264.276 68.5947 263.753 69.0053 263.286 69.528C262.82 70.032 262.484 70.62 262.278 71.292V80H259.198V65.356H261.998V68.296C262.372 67.6427 262.857 67.0827 263.454 66.616C264.07 66.1307 264.761 65.7573 265.526 65.496C266.292 65.2347 267.104 65.104 267.962 65.104C268.84 65.104 269.558 65.2627 270.118 65.58C270.697 65.8973 271.145 66.336 271.462 66.896C271.798 67.4373 272.022 68.072 272.134 68.8C272.265 69.5093 272.33 70.2653 272.33 71.068V80ZM286.657 80L281.953 73.252L279.545 75.548V80H276.465V59.56H279.545V72.44L286.321 65.384H289.625L283.941 71.516L289.933 80H286.657ZM298.236 80.28C297.097 80.28 296.061 80.084 295.128 79.692C294.213 79.2813 293.42 78.7307 292.748 78.04C292.076 77.3307 291.553 76.528 291.18 75.632C290.825 74.7173 290.648 73.7467 290.648 72.72C290.648 71.3387 290.965 70.0787 291.6 68.94C292.234 67.7827 293.121 66.8587 294.26 66.168C295.398 65.4587 296.733 65.104 298.264 65.104C299.794 65.104 301.11 65.4587 302.212 66.168C303.332 66.8587 304.2 67.7733 304.816 68.912C305.432 70.0507 305.74 71.2733 305.74 72.58C305.74 72.804 305.73 73.0187 305.712 73.224C305.693 73.4107 305.674 73.5693 305.656 73.7H293.924C293.98 74.5587 294.213 75.3147 294.624 75.968C295.053 76.6027 295.594 77.1067 296.248 77.48C296.901 77.8347 297.601 78.012 298.348 78.012C299.169 78.012 299.944 77.8067 300.672 77.396C301.418 76.9853 301.922 76.444 302.184 75.772L304.816 76.528C304.498 77.2373 304.013 77.8813 303.36 78.46C302.725 79.02 301.969 79.468 301.092 79.804C300.214 80.1213 299.262 80.28 298.236 80.28ZM293.84 71.656H302.688C302.632 70.816 302.389 70.0787 301.96 69.444C301.549 68.7907 301.017 68.2867 300.364 67.932C299.729 67.5587 299.02 67.372 298.236 67.372C297.47 67.372 296.761 67.5587 296.108 67.932C295.473 68.2867 294.95 68.7907 294.54 69.444C294.129 70.0787 293.896 70.816 293.84 71.656ZM317.044 68.016C315.849 68.0347 314.785 68.3053 313.852 68.828C312.937 69.3507 312.284 70.088 311.892 71.04V80H308.812V65.356H311.668V68.632C312.172 67.624 312.835 66.8213 313.656 66.224C314.477 65.608 315.345 65.272 316.26 65.216C316.447 65.216 316.596 65.216 316.708 65.216C316.839 65.216 316.951 65.2253 317.044 65.244V68.016ZM325.053 80.28C323.821 80.28 322.654 80.084 321.553 79.692C320.451 79.2813 319.509 78.6747 318.725 77.872L319.873 75.8C320.713 76.5467 321.553 77.088 322.393 77.424C323.251 77.76 324.101 77.928 324.941 77.928C325.799 77.928 326.499 77.7693 327.041 77.452C327.582 77.116 327.853 76.6307 327.853 75.996C327.853 75.5293 327.713 75.184 327.433 74.96C327.153 74.736 326.742 74.54 326.201 74.372C325.678 74.204 325.043 74.0173 324.297 73.812C323.251 73.4947 322.374 73.168 321.665 72.832C320.955 72.4773 320.423 72.048 320.069 71.544C319.714 71.04 319.537 70.396 319.537 69.612C319.537 68.66 319.779 67.848 320.265 67.176C320.75 66.504 321.422 65.9907 322.281 65.636C323.158 65.2813 324.166 65.104 325.305 65.104C326.369 65.104 327.349 65.272 328.245 65.608C329.159 65.9253 329.962 66.4293 330.653 67.12L329.337 69.164C328.683 68.5667 328.011 68.128 327.321 67.848C326.649 67.568 325.921 67.428 325.137 67.428C324.689 67.428 324.259 67.484 323.849 67.596C323.438 67.6893 323.093 67.876 322.813 68.156C322.551 68.4173 322.421 68.7907 322.421 69.276C322.421 69.668 322.533 69.9853 322.757 70.228C322.981 70.4707 323.317 70.676 323.765 70.844C324.213 71.012 324.763 71.1987 325.417 71.404C326.555 71.74 327.526 72.076 328.329 72.412C329.131 72.7293 329.747 73.1493 330.177 73.672C330.625 74.176 330.849 74.876 330.849 75.772C330.849 77.1907 330.317 78.3013 329.253 79.104C328.207 79.888 326.807 80.28 325.053 80.28Z" fill="white"/>
<defs>
<linearGradient id="paint0_linear_75_5" x1="-134.5" y1="248.207" x2="507.676" y2="-271.591" gradientUnits="userSpaceOnUse">
<stop stop-color="#1182C7"/>
<stop offset="0.503125" stop-color="#229FA3"/>
<stop offset="1" stop-color="white"/>
</linearGradient>
</defs>
</svg>
