<svg width="467" height="140" viewBox="0 0 467 140" fill="none" xmlns="http://www.w3.org/2000/svg">
<rect width="467" height="140" rx="4" fill="url(#paint0_linear_75_9)"/>
<path d="M164.542 59.204H167.482L169.946 65.952L172.438 59.204H175.378L171.962 68.052L174.93 75.36L181.118 59.12H184.562L176.414 79H173.698L169.974 70.096L166.222 79H163.478L155.358 59.12H158.774L164.99 75.36L167.958 68.052L164.542 59.204ZM184.453 74.716C184.453 73.7827 184.714 72.9707 185.237 72.28C185.778 71.5707 186.516 71.0293 187.449 70.656C188.382 70.264 189.465 70.068 190.697 70.068C191.35 70.068 192.013 70.1147 192.685 70.208C193.376 70.3013 193.982 70.4507 194.505 70.656V69.732C194.505 68.7053 194.197 67.9027 193.581 67.324C192.965 66.7453 192.078 66.456 190.921 66.456C190.1 66.456 189.325 66.6053 188.597 66.904C187.869 67.184 187.094 67.5853 186.273 68.108L185.237 66.036C186.208 65.3827 187.178 64.8973 188.149 64.58C189.138 64.2627 190.174 64.104 191.257 64.104C193.217 64.104 194.757 64.6267 195.877 65.672C197.016 66.6987 197.585 68.164 197.585 70.068V75.528C197.585 75.8827 197.641 76.1347 197.753 76.284C197.884 76.4333 198.098 76.5173 198.397 76.536V79C198.117 79.056 197.865 79.0933 197.641 79.112C197.417 79.1307 197.23 79.14 197.081 79.14C196.428 79.14 195.933 78.9813 195.597 78.664C195.261 78.3467 195.065 77.9733 195.009 77.544L194.925 76.704C194.29 77.5253 193.478 78.16 192.489 78.608C191.5 79.056 190.501 79.28 189.493 79.28C188.522 79.28 187.654 79.084 186.889 78.692C186.124 78.2813 185.526 77.7307 185.097 77.04C184.668 76.3493 184.453 75.5747 184.453 74.716ZM193.777 75.612C194.001 75.3693 194.178 75.1267 194.309 74.884C194.44 74.6413 194.505 74.4267 194.505 74.24V72.56C193.982 72.3547 193.432 72.2053 192.853 72.112C192.274 72 191.705 71.944 191.145 71.944C190.025 71.944 189.11 72.168 188.401 72.616C187.71 73.064 187.365 73.68 187.365 74.464C187.365 74.8933 187.477 75.304 187.701 75.696C187.944 76.088 188.28 76.4053 188.709 76.648C189.157 76.8907 189.708 77.012 190.361 77.012C191.033 77.012 191.677 76.8813 192.293 76.62C192.909 76.3587 193.404 76.0227 193.777 75.612ZM209.92 78.244C209.659 78.3747 209.332 78.5147 208.94 78.664C208.548 78.8133 208.1 78.944 207.596 79.056C207.111 79.168 206.607 79.224 206.084 79.224C205.45 79.224 204.862 79.112 204.32 78.888C203.779 78.664 203.34 78.3093 203.004 77.824C202.687 77.32 202.528 76.676 202.528 75.892V66.736H200.596V64.356H202.528V59.54H205.608V64.356H208.8V66.736H205.608V74.912C205.646 75.416 205.804 75.7893 206.084 76.032C206.383 76.2747 206.747 76.396 207.176 76.396C207.606 76.396 208.016 76.3213 208.408 76.172C208.8 76.0227 209.09 75.9013 209.276 75.808L209.92 78.244ZM219.058 79.28C217.919 79.28 216.883 79.084 215.95 78.692C215.035 78.2813 214.242 77.7307 213.57 77.04C212.898 76.3307 212.375 75.528 212.002 74.632C211.647 73.7173 211.47 72.7467 211.47 71.72C211.47 70.3387 211.787 69.0787 212.422 67.94C213.057 66.7827 213.943 65.8587 215.082 65.168C216.221 64.4587 217.555 64.104 219.086 64.104C220.617 64.104 221.933 64.4587 223.034 65.168C224.154 65.8587 225.022 66.7733 225.638 67.912C226.254 69.0507 226.562 70.2733 226.562 71.58C226.562 71.804 226.553 72.0187 226.534 72.224C226.515 72.4107 226.497 72.5693 226.478 72.7H214.746C214.802 73.5587 215.035 74.3147 215.446 74.968C215.875 75.6027 216.417 76.1067 217.07 76.48C217.723 76.8347 218.423 77.012 219.17 77.012C219.991 77.012 220.766 76.8067 221.494 76.396C222.241 75.9853 222.745 75.444 223.006 74.772L225.638 75.528C225.321 76.2373 224.835 76.8813 224.182 77.46C223.547 78.02 222.791 78.468 221.914 78.804C221.037 79.1213 220.085 79.28 219.058 79.28ZM214.662 70.656H223.51C223.454 69.816 223.211 69.0787 222.782 68.444C222.371 67.7907 221.839 67.2867 221.186 66.932C220.551 66.5587 219.842 66.372 219.058 66.372C218.293 66.372 217.583 66.5587 216.93 66.932C216.295 67.2867 215.773 67.7907 215.362 68.444C214.951 69.0787 214.718 69.816 214.662 70.656ZM237.866 67.016C236.672 67.0347 235.608 67.3053 234.674 67.828C233.76 68.3507 233.106 69.088 232.714 70.04V79H229.634V64.356H232.49V67.632C232.994 66.624 233.657 65.8213 234.478 65.224C235.3 64.608 236.168 64.272 237.082 64.216C237.269 64.216 237.418 64.216 237.53 64.216C237.661 64.216 237.773 64.2253 237.866 64.244V67.016ZM246.648 68.92C246.648 67.7067 246.863 66.5213 247.292 65.364C247.721 64.188 248.347 63.124 249.168 62.172C250.008 61.2013 251.025 60.436 252.22 59.876C253.415 59.2973 254.768 59.008 256.28 59.008C258.072 59.008 259.621 59.4187 260.928 60.24C262.235 61.0427 263.205 62.0787 263.84 63.348L261.376 65C261.003 64.1973 260.527 63.5627 259.948 63.096C259.388 62.6293 258.772 62.3027 258.1 62.116C257.447 61.9293 256.803 61.836 256.168 61.836C255.123 61.836 254.208 62.0507 253.424 62.48C252.64 62.8907 251.977 63.4413 251.436 64.132C250.913 64.8227 250.512 65.5973 250.232 66.456C249.971 67.3147 249.84 68.1733 249.84 69.032C249.84 69.984 249.999 70.908 250.316 71.804C250.633 72.6813 251.072 73.4653 251.632 74.156C252.211 74.828 252.892 75.36 253.676 75.752C254.46 76.144 255.319 76.34 256.252 76.34C256.887 76.34 257.549 76.228 258.24 76.004C258.931 75.78 259.565 75.4347 260.144 74.968C260.741 74.4827 261.208 73.848 261.544 73.064L264.148 74.548C263.737 75.5373 263.093 76.3773 262.216 77.068C261.357 77.7587 260.387 78.2813 259.304 78.636C258.24 78.9907 257.185 79.168 256.14 79.168C254.74 79.168 253.461 78.8787 252.304 78.3C251.147 77.7027 250.148 76.9187 249.308 75.948C248.468 74.9587 247.815 73.8573 247.348 72.644C246.881 71.412 246.648 70.1707 246.648 68.92ZM266.153 74.716C266.153 73.7827 266.414 72.9707 266.937 72.28C267.478 71.5707 268.215 71.0293 269.149 70.656C270.082 70.264 271.165 70.068 272.397 70.068C273.05 70.068 273.713 70.1147 274.385 70.208C275.075 70.3013 275.682 70.4507 276.205 70.656V69.732C276.205 68.7053 275.897 67.9027 275.281 67.324C274.665 66.7453 273.778 66.456 272.621 66.456C271.799 66.456 271.025 66.6053 270.297 66.904C269.569 67.184 268.794 67.5853 267.973 68.108L266.937 66.036C267.907 65.3827 268.878 64.8973 269.849 64.58C270.838 64.2627 271.874 64.104 272.957 64.104C274.917 64.104 276.457 64.6267 277.577 65.672C278.715 66.6987 279.285 68.164 279.285 70.068V75.528C279.285 75.8827 279.341 76.1347 279.453 76.284C279.583 76.4333 279.798 76.5173 280.097 76.536V79C279.817 79.056 279.565 79.0933 279.341 79.112C279.117 79.1307 278.93 79.14 278.781 79.14C278.127 79.14 277.633 78.9813 277.297 78.664C276.961 78.3467 276.765 77.9733 276.709 77.544L276.625 76.704C275.99 77.5253 275.178 78.16 274.189 78.608C273.199 79.056 272.201 79.28 271.193 79.28C270.222 79.28 269.354 79.084 268.589 78.692C267.823 78.2813 267.226 77.7307 266.797 77.04C266.367 76.3493 266.153 75.5747 266.153 74.716ZM275.477 75.612C275.701 75.3693 275.878 75.1267 276.009 74.884C276.139 74.6413 276.205 74.4267 276.205 74.24V72.56C275.682 72.3547 275.131 72.2053 274.553 72.112C273.974 72 273.405 71.944 272.845 71.944C271.725 71.944 270.81 72.168 270.101 72.616C269.41 73.064 269.065 73.68 269.065 74.464C269.065 74.8933 269.177 75.304 269.401 75.696C269.643 76.088 269.979 76.4053 270.409 76.648C270.857 76.8907 271.407 77.012 272.061 77.012C272.733 77.012 273.377 76.8813 273.993 76.62C274.609 76.3587 275.103 76.0227 275.477 75.612ZM296.713 79H293.633V70.796C293.633 69.4333 293.409 68.4347 292.961 67.8C292.532 67.1653 291.888 66.848 291.029 66.848C290.432 66.848 289.835 66.9973 289.237 67.296C288.659 67.5947 288.136 68.0053 287.669 68.528C287.203 69.032 286.867 69.62 286.661 70.292V79H283.581V64.356H286.381V67.296C286.755 66.6427 287.24 66.0827 287.837 65.616C288.453 65.1307 289.144 64.7573 289.909 64.496C290.675 64.2347 291.487 64.104 292.345 64.104C293.223 64.104 293.941 64.2627 294.501 64.58C295.08 64.8973 295.528 65.336 295.845 65.896C296.181 66.4373 296.405 67.072 296.517 67.8C296.648 68.5093 296.713 69.2653 296.713 70.068V79ZM306.056 79.28C304.824 79.28 303.658 79.084 302.556 78.692C301.455 78.2813 300.512 77.6747 299.728 76.872L300.876 74.8C301.716 75.5467 302.556 76.088 303.396 76.424C304.255 76.76 305.104 76.928 305.944 76.928C306.803 76.928 307.503 76.7693 308.044 76.452C308.586 76.116 308.856 75.6307 308.856 74.996C308.856 74.5293 308.716 74.184 308.436 73.96C308.156 73.736 307.746 73.54 307.204 73.372C306.682 73.204 306.047 73.0173 305.3 72.812C304.255 72.4947 303.378 72.168 302.668 71.832C301.959 71.4773 301.427 71.048 301.072 70.544C300.718 70.04 300.54 69.396 300.54 68.612C300.54 67.66 300.783 66.848 301.268 66.176C301.754 65.504 302.426 64.9907 303.284 64.636C304.162 64.2813 305.17 64.104 306.308 64.104C307.372 64.104 308.352 64.272 309.248 64.608C310.163 64.9253 310.966 65.4293 311.656 66.12L310.34 68.164C309.687 67.5667 309.015 67.128 308.324 66.848C307.652 66.568 306.924 66.428 306.14 66.428C305.692 66.428 305.263 66.484 304.852 66.596C304.442 66.6893 304.096 66.876 303.816 67.156C303.555 67.4173 303.424 67.7907 303.424 68.276C303.424 68.668 303.536 68.9853 303.76 69.228C303.984 69.4707 304.32 69.676 304.768 69.844C305.216 70.012 305.767 70.1987 306.42 70.404C307.559 70.74 308.53 71.076 309.332 71.412C310.135 71.7293 310.751 72.1493 311.18 72.672C311.628 73.176 311.852 73.876 311.852 74.772C311.852 76.1907 311.32 77.3013 310.256 78.104C309.211 78.888 307.811 79.28 306.056 79.28Z" fill="white"/>
<defs>
<linearGradient id="paint0_linear_75_9" x1="-134.5" y1="248.207" x2="507.676" y2="-271.591" gradientUnits="userSpaceOnUse">
<stop stop-color="#1182C7"/>
<stop offset="0.503125" stop-color="#229FA3"/>
<stop offset="1" stop-color="white"/>
</linearGradient>
</defs>
</svg>
